<svg width="39" height="38" viewBox="0 0 39 38" fill="none" xmlns="http://www.w3.org/2000/svg">
<path fill-rule="evenodd" clip-rule="evenodd" d="M10.3444 34.043C11.1884 34.043 11.8744 34.729 11.8744 35.573C11.8744 36.417 11.1884 37.101 10.3444 37.101C9.50041 37.101 8.81641 36.417 8.81641 35.573C8.81641 34.729 9.50041 34.043 10.3444 34.043Z" stroke="white" stroke-width="1.5" stroke-linecap="round" stroke-linejoin="round"/>
<path fill-rule="evenodd" clip-rule="evenodd" d="M32.8493 34.043C33.6933 34.043 34.3793 34.729 34.3793 35.573C34.3793 36.417 33.6933 37.101 32.8493 37.101C32.0053 37.101 31.3193 36.417 31.3193 35.573C31.3193 34.729 32.0053 34.043 32.8493 34.043Z" stroke="white" stroke-width="1.5" stroke-linecap="round" stroke-linejoin="round"/>
<path d="M1 0.902344L5.16 1.62234L7.086 24.5683C7.242 26.4383 8.804 27.8743 10.68 27.8743H32.504C34.296 27.8743 35.816 26.5583 36.074 24.7823L37.972 11.6663C38.206 10.0483 36.952 8.60034 35.318 8.60034H5.828" stroke="white" stroke-width="1.5" stroke-linecap="round" stroke-linejoin="round"/>
<path d="M23.751 15.9922H29.297" stroke="white" stroke-width="1.5" stroke-linecap="round" stroke-linejoin="round"/>
</svg>
