<svg width="32" height="31" viewBox="0 0 32 31" fill="none" xmlns="http://www.w3.org/2000/svg">
<path d="M12.8945 5.99609L14.3967 8.59791" stroke="#F18500" stroke-width="1.5" stroke-linecap="round" stroke-linejoin="round"/>
<path d="M21.2803 20.5195L22.5366 22.6956" stroke="#F18500" stroke-width="1.5" stroke-linecap="round" stroke-linejoin="round"/>
<path d="M19.1483 16.8277L16.1558 11.6445" stroke="#F18500" stroke-width="1.5" stroke-linecap="round" stroke-linejoin="round"/>
<path fill-rule="evenodd" clip-rule="evenodd" d="M27.8886 19.9167C29.8476 18.7857 30.5296 16.3026 29.4126 14.368L27.8034 11.5808C26.5071 12.3291 24.8679 11.9009 24.1289 10.6208C23.3898 9.34063 23.8379 7.70582 25.1341 6.95743L23.5231 4.16968C22.4062 2.23509 19.9137 1.58486 17.9558 2.71522L3.54677 11.0343C1.58892 12.1647 0.905799 14.6483 2.02274 16.5829L3.68392 19.4628C4.98018 18.7144 6.56758 19.0529 7.30667 20.3331C8.04576 21.6132 7.59703 23.2469 6.30077 23.9953L7.91001 26.7826C9.02695 28.7172 11.5183 29.3681 13.4773 28.237L27.8886 19.9167Z" stroke="#F18500" stroke-width="1.5" stroke-linecap="round" stroke-linejoin="round"/>
</svg>
