<svg width="31" height="32" viewBox="0 0 31 32" fill="none" xmlns="http://www.w3.org/2000/svg">
<path d="M15.5 6.4043C10.2092 6.4043 5.90479 10.8743 5.90479 16.3686C5.90479 21.8629 10.2092 26.3329 15.5 26.3329C20.7908 26.3329 25.0953 21.8629 25.0953 16.3686C25.0953 10.8743 20.7908 6.4043 15.5 6.4043ZM15.5 24.2351C14.0018 24.2351 12.5372 23.7738 11.2915 22.9094C10.0457 22.045 9.07481 20.8164 8.50146 19.379C7.92811 17.9416 7.7781 16.3599 8.07039 14.8339C8.36268 13.3079 9.08415 11.9063 10.1436 10.8061C11.203 9.70594 12.5527 8.95673 14.0222 8.6532C15.4916 8.34966 17.0147 8.50545 18.3989 9.10085C19.7831 9.69625 20.9662 10.7045 21.7986 11.9982C22.6309 13.2918 23.0752 14.8127 23.0752 16.3686C23.0729 18.4542 22.2741 20.4537 20.854 21.9285C19.4338 23.4032 17.5084 24.2328 15.5 24.2351Z" fill="white"/>
<path d="M14.762 0.5H16.238V3.45238H14.762V0.5Z" fill="white"/>
<path d="M14.762 29.2852H16.238V31.4994H14.762V29.2852Z" fill="white"/>
<path d="M28.0476 15.2617H31V17.476H28.0476V15.2617Z" fill="white"/>
<path d="M0 15.2617H2.95238V17.476H0V15.2617Z" fill="white"/>
<path d="M23.6191 26.386L25.1478 24.8574L27.3096 27.0193L25.781 28.5479L23.6191 26.386Z" fill="white"/>
<path d="M3.69043 5.72007L5.2191 4.19141L7.38091 6.35321L5.85224 7.88188L3.69043 5.72007Z" fill="white"/>
<path d="M3.69043 27.0193L5.85224 24.8574L7.38091 26.386L5.2191 28.5479L3.69043 27.0193Z" fill="white"/>
<path d="M23.6191 6.35321L25.7809 4.19141L27.3096 5.72007L25.1478 7.88188L23.6191 6.35321Z" fill="white"/>
</svg>
