<svg xmlns="http://www.w3.org/2000/svg" xmlns:xlink="http://www.w3.org/1999/xlink">
  <symbol viewBox="0 0 47 42" id="logo-mobile">
      <path fill-rule="evenodd" clip-rule="evenodd" d="M21.0268 38.3555C25.9453 38.3555 30.3916 36.4213 33.6119 33.2979C36.5292 30.4685 38.4387 26.6548 38.777 22.4174L34.0135 22.2739L33.0904 19.5811L38.7558 19.5879V19.5811H41.9972C42.0325 20.08 42.0536 20.5789 42.0536 21.0915C42.0536 26.7231 39.7001 31.8217 35.895 35.5123C32.0898 39.203 26.8331 41.4857 21.0268 41.4857C15.2205 41.4857 9.96377 39.203 6.15865 35.5123C2.35353 31.8217 0 26.7231 0 21.0915C0 15.4598 2.35353 10.3613 6.15865 6.67064C9.96377 2.98 15.2205 0.697266 21.0268 0.697266C25.5859 0.697266 29.8068 2.10518 33.2525 4.49726L31.202 5.54294C29.9829 6.16488 30.0252 6.07604 28.8203 5.53611C28.5032 5.39942 28.1931 5.25589 27.869 5.12604C26.7768 4.66812 25.6423 4.3264 24.4866 4.09402C23.331 3.86165 22.1472 3.74546 20.9634 3.74546C16.2352 3.74546 11.7606 5.59079 8.45582 8.85769C8.10349 9.19941 7.77231 9.56164 7.45521 9.93071C4.81982 12.9447 3.2273 16.8404 3.2273 21.0983C3.2273 25.8688 5.22147 30.1814 8.44173 33.3048C11.6549 36.4213 16.1083 38.3555 21.0268 38.3555Z" fill="#E9EAE8"/>
      <path d="M13.9309 27.3698L17.2851 19.6195L18.3984 21.5331L15.8687 27.3698H13.9309ZM8.70947 27.3698L14.6286 13.6871L15.0091 12.7986H15.763L16.2281 13.5983L21.0268 21.8544L22.4009 19.4965L23.2746 21.5126L21.809 24.0414L21.203 25.0871H20.8647L20.2587 24.0414L15.5798 15.9904L10.6543 27.3767H8.70947V27.3698ZM23.937 16.8378L25.8184 13.5983L26.2835 12.7986H27.0375L27.418 13.6871L33.337 27.3698H31.3993L26.4737 15.9835L24.8037 18.854L23.937 16.8378ZM18.4971 16.8173L20.2023 12.8806L20.6604 11.8281H21.4003L21.8583 12.8806L23.5635 16.8173L24.7755 19.6195L28.1297 27.3698H26.1919L23.0985 20.2278L22.4502 18.7242L21.0338 15.4504L19.6175 18.7242L18.4971 16.8173Z" fill="#F18500"/>
      <path fill-rule="evenodd" clip-rule="evenodd" d="M35.4789 14.5849C35.655 13.2385 36.7754 11.8511 37.6139 10.8122L43.3991 3.62913L44.7027 2.96618L37.3673 12.0698C36.7261 12.8694 36.0567 13.7032 35.6057 14.619L35.4225 14.9949L35.4789 14.5849ZM29.6655 9.11042C28.8974 9.04891 28.228 8.70035 27.5304 8.40647C22.1891 6.16474 16.6647 6.56114 11.9787 10.0057C7.32099 13.6007 5.05907 19.6834 6.66567 25.3082L6.67977 25.3698L6.55293 25.4108L6.53179 25.3493C4.2769 19.4579 6.45427 13.1223 11.4502 9.29495C16.108 5.72733 22.471 5.08489 27.8052 7.58632C29.6303 8.39963 30.2926 8.50215 32.174 7.54532L46.9999 0L45.6752 1.64712L32.5546 8.33129C31.6667 8.77553 30.6872 9.19244 29.6655 9.11042ZM36.0708 23.5449C35.3732 29.614 30.7436 34.2478 24.6766 35.6284C19.3494 36.8449 13.6206 35.3345 9.97049 31.2953L9.92821 31.2475L10.0269 31.1586L10.0762 31.2064C13.8743 34.8287 19.4199 35.9496 24.5215 34.7672C30.1799 33.455 34.7742 29.0809 35.9369 23.5244L35.951 23.4629L36.0778 23.4834L36.0708 23.5449Z" fill="#B3C8E9"/>
  </symbol>
  <symbol viewBox="0 0 31 30" id="basket">
    <path fill-rule="evenodd" clip-rule="evenodd" d="M8.33824 26.6133C8.98815 26.6133 9.51639 27.1415 9.51639 27.7914C9.51639 28.4413 8.98815 28.9681 8.33824 28.9681C7.68833 28.9681 7.16162 28.4413 7.16162 27.7914C7.16162 27.1415 7.68833 26.6133 8.33824 26.6133Z" stroke="white" stroke-width="1.5" stroke-linecap="round" stroke-linejoin="round"/>
    <path fill-rule="evenodd" clip-rule="evenodd" d="M25.6677 26.6133C26.3176 26.6133 26.8458 27.1415 26.8458 27.7914C26.8458 28.4413 26.3176 28.9681 25.6677 28.9681C25.0177 28.9681 24.4895 28.4413 24.4895 27.7914C24.4895 27.1415 25.0177 26.6133 25.6677 26.6133Z" stroke="white" stroke-width="1.5" stroke-linecap="round" stroke-linejoin="round"/>
    <path d="M1.14233 1.0918L4.34568 1.64622L5.82877 19.3155C5.9489 20.7554 7.15169 21.8612 8.59628 21.8612H25.4015C26.7814 21.8612 27.9519 20.8478 28.1506 19.4803L29.6121 9.38046C29.7923 8.13454 28.8267 7.01953 27.5684 7.01953H4.86007" stroke="white" stroke-width="1.5" stroke-linecap="round" stroke-linejoin="round"/>
    <path d="M18.6614 12.7109H22.932" stroke="white" stroke-width="1.5" stroke-linecap="round" stroke-linejoin="round"/>
  </symbol>
  <symbol id="auth">
    <path fill-rule="evenodd" clip-rule="evenodd" d="M14.0001 22.625C7.3268 22.625 1.62744 23.6336 1.62744 27.6751C1.62744 31.7165 7.29208 32.7616 14.0001 32.7616C20.6751 32.7616 26.3727 31.7513 26.3727 27.7115C26.3727 23.6718 20.7098 22.625 14.0001 22.625Z" stroke="white" stroke-width="1.5" stroke-linecap="round" stroke-linejoin="round"/>
  <path fill-rule="evenodd" clip-rule="evenodd" d="M13.9998 16.8603C18.3798 16.8603 21.9299 13.3101 21.9299 8.93015C21.9299 4.55016 18.3798 1 13.9998 1C9.62156 1 6.07134 4.55016 6.07134 8.93015C6.05577 13.2945 9.57989 16.8447 13.946 16.8603H13.9998Z" stroke="white" stroke-width="1.5" stroke-linecap="round" stroke-linejoin="round"/>

  </symbol>
  <symbol viewBox="0 0 40 13" id="toggle">
    <line y1="0.5" x2="40" y2="0.5" stroke="white"/>
    <line x1="13" y1="12.5" x2="40" y2="12.5" stroke="white"/>
  </symbol>
  <symbol viewBox="0 0 22 22" id="close-menu">
    <line x1="1.06937" y1="0.583947" x2="21.3536" y2="20.8682" stroke="white"/>
    <line x1="0.362267" y1="20.664" x2="20.6465" y2="0.37975" stroke="white"/>
  </symbol>
  <symbol viewBox="0 0 52 50" id="calendar">
    <path d="M1.32666 18.6992H50.7689" stroke="white" stroke-width="1.5" stroke-linecap="round" stroke-linejoin="round"/>
    <path d="M13.7126 37.5683H13.7383M38.3568 28.1562H38.3825H38.3568ZM26.0476 28.1562H26.0733H26.0476ZM13.7126 28.1562H13.7383H13.7126ZM38.3568 37.5683H38.3825H38.3568ZM26.0476 37.5683H26.0733H26.0476Z" stroke="white" stroke-width="1.5" stroke-linecap="round" stroke-linejoin="round"/>
    <path d="M37.2515 0.767578V8.73677" stroke="white" stroke-width="1.5" stroke-linecap="round" stroke-linejoin="round"/>
    <path d="M14.8433 0.767578V8.73677" stroke="white" stroke-width="1.5" stroke-linecap="round" stroke-linejoin="round"/>
    <path fill-rule="evenodd" clip-rule="evenodd" d="M37.7913 4.5918H14.3036C6.15747 4.5918 1.06934 8.55352 1.06934 15.8358V37.7512C1.06934 45.148 6.15747 49.2013 14.3036 49.2013H37.7656C45.9374 49.2013 50.9999 45.2167 50.9999 37.9344V15.8358C51.0255 8.55352 45.9631 4.5918 37.7913 4.5918Z" stroke="white" stroke-width="1.5" stroke-linecap="round" stroke-linejoin="round"/>
  </symbol>
  <symbol viewBox="0 0 240 193" id="sovereigns-road">
    <path d="M121.256 18.3721C118.12 18.3721 115.576 15.8927 115.576 12.835C115.576 9.77629 118.12 7.29785 121.256 7.29785C124.393 7.29785 126.937 9.77629 126.937 12.835C126.937 15.8927 124.393 18.3721 121.256 18.3721ZM121.269 0.1875C114.905 0.1875 109.298 5.92999 109.747 12.9745C110.099 18.5257 117.547 32.5888 120.277 37.5786C120.495 37.9784 120.897 38.1787 121.299 38.1787C121.693 38.1787 122.086 37.9874 122.309 37.6035C125.142 32.7094 132.791 18.9464 132.791 12.9745C132.791 5.91206 127.632 0.1875 121.269 0.1875Z" fill="white"/>
    <path d="M95.3755 24.4688C82.6832 24.4688 50.8452 27.8365 65.8528 63.1721C67.0393 65.9676 69.4501 71.4666 71.8614 76.9421H102.973V84.9587H75.4016C77.2762 89.1984 78.6525 92.2999 78.6525 92.2999L110.999 92.4486V79.2686V69.9381V45.3182L100.297 24.6562C100.297 24.6562 98.3675 24.4688 95.3755 24.4688ZM95.3755 32.0966H95.3849L103.174 47.1347V69.3143H102.973H77.0215C75.159 65.072 73.8388 62.0334 73.0831 60.254C70.3851 53.9013 67.9413 45.2006 71.6266 39.826C74.9441 34.9857 83.8226 32.0966 95.3755 32.0966Z" fill="white"/>
    <path d="M147.137 24.4688C144.144 24.4688 142.215 24.6562 142.215 24.6562L131.513 45.3182V69.9381V79.2686V92.4486L163.86 92.2999C163.86 92.2999 165.236 89.1984 167.111 84.9587H139.914V76.9421H170.651C173.063 71.4666 175.473 65.9676 176.659 63.1721C191.666 27.8395 159.831 24.4688 147.137 24.4688ZM147.137 32.0966C158.689 32.0966 167.567 34.9867 170.886 39.827C174.57 45.2006 172.128 53.9013 169.43 60.254C168.677 62.0272 167.355 65.0659 165.491 69.3143H139.914H139.338V47.1347L147.128 32.0966H147.137Z" fill="white"/>
    <path d="M119.088 53.1897H123.207V47.168H119.088V53.1897Z" fill="white"/>
    <path d="M119.088 75.3488H123.207V64.2695H119.088V75.3488Z" fill="white"/>
    <path d="M119.088 92.4494H123.207V86.4277H119.088V92.4494Z" fill="white"/>
    <path d="M0.730957 143.83L3.11908 143.379V127.688L0.730957 127.237V124.596H17.7372V130.136H14.2865L14.1024 127.974H7.61711V143.379L10.0196 143.83V146.458H0.730957V143.83Z" fill="white"/>
    <path d="M37.5747 135.329C37.5747 133.067 37.092 131.229 36.1265 129.819C35.161 128.407 33.7343 127.701 31.8443 127.701C29.9542 127.701 28.5449 128.402 27.6162 129.803C26.6865 131.204 26.2212 133.047 26.2212 135.329V135.69C26.2212 137.992 26.6917 139.846 27.6316 141.253C28.5705 142.659 29.9808 143.362 31.8596 143.362C33.7599 143.362 35.1866 142.659 36.1419 141.253C37.0971 139.846 37.5747 137.992 37.5747 135.69V135.329ZM42.0575 135.69C42.0575 138.893 41.1175 141.54 39.2377 143.633C37.3589 145.725 34.8992 146.771 31.8596 146.771C28.8302 146.771 26.3838 145.725 24.5193 143.633C22.6559 141.54 21.7231 138.893 21.7231 135.69V135.359C21.7231 132.175 22.6528 129.534 24.5122 127.431C26.3705 125.328 28.8149 124.277 31.8443 124.277C34.8839 124.277 37.3456 125.328 39.2305 127.431C41.1145 129.534 42.0575 132.175 42.0575 135.359V135.69Z" fill="white"/>
    <path d="M65.3913 131.969H62.0476L61.5864 129.055C61.1446 128.625 60.5875 128.285 59.9157 128.035C59.2422 127.784 58.4488 127.659 57.5353 127.659C55.5841 127.659 54.0816 128.35 53.0293 129.731C51.9768 131.113 51.4512 132.914 51.4512 135.137V135.903C51.4512 138.125 51.9738 139.931 53.0221 141.323C54.0695 142.715 55.5485 143.411 57.4577 143.411C58.3413 143.411 59.1495 143.285 59.8847 143.035C60.6179 142.784 61.1855 142.445 61.5864 142.014L62.0476 139.101H65.3913V143.426C64.4872 144.446 63.3343 145.26 61.9334 145.865C60.5309 146.471 58.9624 146.774 57.2276 146.774C54.2189 146.774 51.7539 145.758 49.8332 143.726C47.9125 141.694 46.9531 139.086 46.9531 135.903V135.167C46.9531 131.993 47.9073 129.385 49.8178 127.344C51.7283 125.302 54.1974 124.281 57.2276 124.281C58.9624 124.281 60.5288 124.588 61.925 125.204C63.3222 125.819 64.4768 126.633 65.3913 127.644V131.969Z" fill="white"/>
    <path d="M91.0971 127.237L88.9096 127.522L82.5174 142.314C81.8596 143.745 81.0897 144.846 80.2067 145.618C79.3231 146.387 78.06 146.773 76.4165 146.773C76.1607 146.773 75.8704 146.765 75.546 146.75C75.2231 146.736 74.9794 146.718 74.8149 146.698L74.7845 143.349C74.8966 143.369 75.0921 143.385 75.3694 143.394C75.6466 143.404 75.8573 143.409 76.0014 143.409C76.8122 143.409 77.4212 143.234 77.8257 142.884C78.2319 142.534 78.5736 142.004 78.8509 141.292L79.1894 140.466L72.751 127.553L70.3628 127.237V124.596H78.604V127.237L77.4804 127.448L80.7297 134.31L81.0845 135.467H81.1762L84.2736 127.493L82.9324 127.237V124.596H91.0971V127.237Z" fill="white"/>
    <path d="M103.341 133.542C103.248 135.754 102.978 137.633 102.531 139.179C102.084 140.727 101.503 142.031 100.784 143.091H109.548V127.971H103.709L103.341 133.542ZM116.279 151.831H112.198V146.456H98.4414V151.831H94.2985L93.96 143.091H95.6852C96.486 142.421 97.1836 141.362 97.78 139.916C98.3748 138.469 98.7249 136.344 98.8271 133.542L99.2432 127.655L97.0557 127.235V124.592H116.434V127.235L114.047 127.686V143.091H116.695L116.279 151.831Z" fill="white"/>
    <path d="M129.741 137.325H134.885L132.359 129.621H132.267L129.741 137.325ZM121.607 143.826L123.21 143.601L130.033 124.592H134.639L141.418 143.601L143.019 143.826V146.454H135.378V143.826L136.934 143.556L135.948 140.553H128.677L127.693 143.556L129.248 143.826V146.454H121.607V143.826Z" fill="white"/>
    <path d="M154.537 135.147H158.326C159.579 135.147 160.526 134.814 161.168 134.15C161.811 133.484 162.132 132.635 162.132 131.603C162.132 130.553 161.811 129.684 161.168 128.999C160.526 128.313 159.579 127.97 158.326 127.97H154.537V135.147ZM158.326 124.592C160.894 124.592 162.919 125.234 164.404 126.521C165.888 127.808 166.63 129.492 166.63 131.574C166.63 133.666 165.888 135.348 164.404 136.619C162.919 137.89 160.894 138.526 158.326 138.526H154.537V143.376L156.941 143.827V146.454H147.652V143.827L150.039 143.376V127.685L147.652 127.235V124.592H150.039H158.326Z" fill="white"/>
    <path d="M185.697 136.845H178.103V143.09H185.343L185.544 140.478H188.963V146.455H171.217V143.826L173.605 143.377V127.685L171.217 127.234V124.592H173.605H188.932V130.583H185.481L185.281 127.971H178.103V133.466H185.697V136.845Z" fill="white"/>
    <path d="M201.406 136.788V143.094H205.55C206.741 143.094 207.65 142.841 208.276 142.336C208.903 141.83 209.216 141.083 209.216 140.09C209.216 139.02 208.949 138.201 208.415 137.636C207.881 137.071 207.039 136.788 205.889 136.788H201.406ZM201.406 133.755H204.642C205.843 133.755 206.767 133.514 207.414 133.034C208.06 132.554 208.385 131.853 208.385 130.932C208.385 129.921 208.059 129.175 207.406 128.694C206.754 128.214 205.781 127.974 204.487 127.974H201.406V133.755ZM204.487 124.596C207.127 124.596 209.185 125.095 210.664 126.096C212.143 127.097 212.883 128.594 212.883 130.586C212.883 131.597 212.608 132.5 212.058 133.297C211.509 134.092 210.71 134.69 209.663 135.091C211.008 135.371 212.018 135.972 212.689 136.892C213.362 137.813 213.699 138.88 213.699 140.09C213.699 142.183 212.99 143.767 211.573 144.844C210.156 145.919 208.148 146.458 205.55 146.458H194.521V143.83L196.908 143.379V127.688L194.521 127.237V124.596H196.908H204.487Z" fill="white"/>
    <path d="M226.435 137.325H231.581L229.055 129.621H228.962L226.435 137.325ZM218.303 143.826L219.904 143.601L226.728 124.592H231.335L238.113 143.601L239.714 143.826V146.454H232.074V143.826L233.63 143.556L232.644 140.553H225.373L224.387 143.556L225.943 143.826V146.454H218.303V143.826Z" fill="white"/>
    <path d="M58.5446 174.546C58.4529 176.758 58.1824 178.637 57.7359 180.184C57.2889 181.731 56.7066 183.035 55.9876 184.095H64.7529V168.975H58.9141L58.5446 174.546ZM71.4837 192.835H67.4016V187.459H53.646V192.835H49.5026L49.1641 184.095H50.8894C51.6903 183.425 52.3878 182.367 52.984 180.92C53.5794 179.474 53.929 177.349 54.0312 174.546L54.4478 168.659L52.2599 168.239V165.596H71.6378V168.239L69.2506 168.69V184.095H71.8998L71.4837 192.835Z" fill="white"/>
    <path d="M92.4462 176.332C92.4462 174.069 91.9635 172.233 90.9976 170.821C90.0323 169.411 88.6057 168.705 86.7154 168.705C84.8255 168.705 83.4162 169.406 82.4876 170.806C81.5578 172.208 81.0925 174.049 81.0925 176.332V176.692C81.0925 178.995 81.5631 180.85 82.5028 182.255C83.4419 183.663 84.8522 184.366 86.7311 184.366C88.6314 184.366 90.058 183.663 91.0134 182.255C91.9682 180.85 92.4462 178.995 92.4462 176.692V176.332ZM96.9287 176.692C96.9287 179.896 95.989 182.544 94.1091 184.636C92.2303 186.728 89.7708 187.774 86.7311 187.774C83.7013 187.774 81.2549 186.728 79.3908 184.636C77.5271 182.544 76.5942 179.896 76.5942 176.692V176.362C76.5942 173.179 77.524 170.536 79.3834 168.434C81.2418 166.332 83.6861 165.281 86.7154 165.281C89.755 165.281 92.2172 166.332 94.1018 168.434C95.9859 170.536 96.9287 173.179 96.9287 176.362V176.692Z" fill="white"/>
    <path d="M108.771 176.153H112.56C113.813 176.153 114.76 175.82 115.403 175.155C116.044 174.489 116.365 173.64 116.365 172.609C116.365 171.558 116.044 170.69 115.403 170.004C114.76 169.319 113.813 168.975 112.56 168.975H108.771V176.153ZM112.56 165.598C115.128 165.598 117.154 166.24 118.638 167.527C120.122 168.813 120.863 170.497 120.863 172.579C120.863 174.672 120.122 176.354 118.638 177.625C117.154 178.896 115.128 179.532 112.56 179.532H108.771V184.381L111.175 184.832V187.46H101.886V184.832L104.273 184.381V168.69L101.886 168.24V165.598H104.273H112.56Z" fill="white"/>
    <path d="M141.471 176.332C141.471 174.069 140.988 172.233 140.023 170.821C139.058 169.411 137.631 168.705 135.741 168.705C133.851 168.705 132.441 169.406 131.512 170.806C130.583 172.208 130.118 174.049 130.118 176.332V176.692C130.118 178.995 130.588 180.85 131.528 182.255C132.467 183.663 133.877 184.366 135.756 184.366C137.656 184.366 139.083 183.663 140.038 182.255C140.994 180.85 141.471 178.995 141.471 176.692V176.332ZM145.954 176.692C145.954 179.896 145.014 182.544 143.134 184.636C141.255 186.728 138.796 187.774 135.756 187.774C132.727 187.774 130.28 186.728 128.416 184.636C126.552 182.544 125.62 179.896 125.62 176.692V176.362C125.62 173.179 126.549 170.536 128.409 168.434C130.267 166.332 132.712 165.281 135.741 165.281C138.78 165.281 141.242 166.332 143.127 168.434C145.011 170.536 145.954 173.179 145.954 176.362V176.692Z" fill="white"/>
    <path d="M151.048 184.832L153.436 184.381V168.69L151.048 168.239V165.598H168.054V171.138H164.604L164.419 168.976H157.934V184.381L160.337 184.832V187.46H151.048V184.832Z" fill="white"/>
    <path d="M177.648 178.331H182.793L180.267 170.627H180.174L177.648 178.331ZM169.515 184.832L171.117 184.608L177.94 165.598H182.547L189.324 184.608L190.926 184.832V187.46H183.287V184.832L184.842 184.562L183.856 181.559H176.585L175.599 184.562L177.155 184.832V187.46H169.515V184.832Z" fill="white"/>
  </symbol>
  <symbol viewBox="0 0 290 262" id="sovereigns-road-big">
    <path d="M146.251 25.1203C142.457 25.1203 139.381 21.7658 139.381 17.6289C139.381 13.4906 142.457 10.1375 146.251 10.1375C150.044 10.1375 153.121 13.4906 153.121 17.6289C153.121 21.7658 150.044 25.1203 146.251 25.1203ZM146.266 0.517578C138.57 0.517578 131.789 8.28683 132.332 17.8177C132.758 25.328 141.765 44.3546 145.066 51.1055C145.33 51.6464 145.817 51.9175 146.303 51.9175C146.779 51.9175 147.254 51.6586 147.523 51.1392C150.95 44.5178 160.2 25.8972 160.2 17.8177C160.2 8.26257 153.962 0.517578 146.266 0.517578Z" fill="white"/>
    <path d="M114.951 33.3691C99.6019 33.3691 61.0984 37.9255 79.2479 85.7325C80.6828 89.5146 83.5983 96.9545 86.5145 104.363H124.139V115.208H90.7958C93.0629 120.945 94.7273 125.141 94.7273 125.141L133.846 125.342V107.51V94.8865V61.5773L120.904 33.6227C120.904 33.6227 118.57 33.3691 114.951 33.3691ZM114.951 43.6891H114.963L124.383 64.0349V94.0425H124.139H92.7549C90.5024 88.303 88.9058 84.1919 87.9919 81.7845C84.729 73.1897 81.7736 61.4181 86.2305 54.1466C90.2425 47.598 100.98 43.6891 114.951 43.6891Z" fill="white"/>
    <path d="M177.549 33.3691C173.93 33.3691 171.597 33.6227 171.597 33.6227L158.655 61.5773V94.8865V107.51V125.342L197.773 125.141C197.773 125.141 199.438 120.945 201.705 115.208H168.815V104.363H205.986C208.903 96.9545 211.818 89.5146 213.253 85.7325C231.401 37.9296 192.901 33.3691 177.549 33.3691ZM177.549 43.6891C191.52 43.6891 202.257 47.5993 206.271 54.1479C210.726 61.4181 207.772 73.1897 204.509 81.7845C203.599 84.1836 202.001 88.2947 199.746 94.0425H168.815H168.118V64.0349L177.539 43.6891H177.549Z" fill="white"/>
    <path d="M143.628 72.2271H148.609V64.0801H143.628V72.2271Z" fill="white"/>
    <path d="M143.628 102.206H148.609V87.2168H143.628V102.206Z" fill="white"/>
    <path d="M143.628 125.342H148.609V117.195H143.628V125.342Z" fill="white"/>
    <path d="M0.492188 194.857L3.38028 194.247V173.018L0.492188 172.408V168.834H21.0589V176.329H16.8857L16.663 173.404H8.82001V194.247L11.7254 194.857V198.412H0.492188V194.857Z" fill="white"/>
    <path d="M45.0496 183.357C45.0496 180.296 44.4658 177.81 43.2982 175.902C42.1306 173.991 40.4052 173.037 38.1195 173.037C35.8337 173.037 34.1293 173.985 33.0062 175.881C31.8819 177.776 31.3192 180.269 31.3192 183.357V183.845C31.3192 186.959 31.8881 189.468 33.0248 191.371C34.1603 193.274 35.8659 194.225 38.138 194.225C40.4361 194.225 42.1615 193.274 43.3168 191.371C44.472 189.468 45.0496 186.959 45.0496 183.845V183.357ZM50.4709 183.845C50.4709 188.178 49.3341 191.759 47.0608 194.591C44.7887 197.422 41.814 198.837 38.138 198.837C34.4744 198.837 31.5158 197.422 29.261 194.591C27.0074 191.759 25.8794 188.178 25.8794 183.845V183.397C25.8794 179.09 27.0037 175.516 29.2523 172.671C31.4997 169.826 34.4559 168.404 38.1195 168.404C41.7955 168.404 44.7726 169.826 47.0521 172.671C49.3305 175.516 50.4709 179.09 50.4709 183.397V183.845Z" fill="white"/>
    <path d="M78.69 178.809H74.6463L74.0885 174.867C73.5542 174.285 72.8805 173.825 72.068 173.486C71.2535 173.148 70.2939 172.978 69.1892 172.978C66.8296 172.978 65.0124 173.913 63.7398 175.782C62.4671 177.651 61.8314 180.088 61.8314 183.095V184.131C61.8314 187.138 62.4634 189.582 63.7312 191.465C64.9979 193.348 66.7865 194.289 69.0954 194.289C70.164 194.289 71.1413 194.119 72.0306 193.781C72.9173 193.442 73.6037 192.982 74.0885 192.4L74.6463 188.459H78.69V194.309C77.5966 195.69 76.2023 196.791 74.5081 197.61C72.812 198.43 70.9151 198.84 68.8172 198.84C65.1785 198.84 62.1975 197.465 59.8746 194.716C57.5518 191.966 56.3916 188.438 56.3916 184.131V183.136C56.3916 178.842 57.5456 175.314 59.856 172.552C62.1665 169.789 65.1525 168.408 68.8172 168.408C70.9151 168.408 72.8095 168.824 74.498 169.657C76.1877 170.489 77.584 171.59 78.69 172.958V178.809Z" fill="white"/>
    <path d="M109.778 172.408L107.132 172.794L99.4019 192.805C98.6064 194.742 97.6754 196.231 96.6074 197.275C95.5388 198.317 94.0113 198.839 92.0237 198.839C91.7144 198.839 91.3633 198.828 90.971 198.808C90.5805 198.789 90.2858 198.764 90.0868 198.737L90.0501 194.206C90.1857 194.233 90.4221 194.254 90.7574 194.267C91.0927 194.281 91.3474 194.287 91.5217 194.287C92.5022 194.287 93.2387 194.05 93.728 193.577C94.2192 193.103 94.6325 192.386 94.9678 191.424L95.3772 190.306L87.5909 172.835L84.7026 172.408V168.834H94.6692V172.408L93.3103 172.693L97.2399 181.977L97.669 183.542H97.7799L101.526 172.754L99.9038 172.408V168.834H109.778V172.408Z" fill="white"/>
    <path d="M124.584 180.939C124.472 183.932 124.146 186.474 123.605 188.566C123.065 190.66 122.361 192.424 121.491 193.859H132.091V173.402H125.03L124.584 180.939ZM140.231 205.683H135.295V198.41H118.659V205.683H113.649L113.239 193.859H115.326C116.294 192.951 117.138 191.519 117.859 189.563C118.578 187.605 119.002 184.73 119.125 180.939L119.629 172.975L116.983 172.406V168.83H140.418V172.406L137.531 173.016V193.859H140.734L140.231 205.683Z" fill="white"/>
    <path d="M156.511 186.057H162.732L159.677 175.635H159.567L156.511 186.057ZM146.674 194.853L148.612 194.548L156.865 168.83H162.435L170.633 194.548L172.57 194.853V198.408H163.329V194.853L165.21 194.487L164.018 190.425H155.225L154.034 194.487L155.915 194.853V198.408H146.674V194.853Z" fill="white"/>
    <path d="M186.499 183.111H191.082C192.597 183.111 193.742 182.661 194.519 181.761C195.296 180.86 195.684 179.712 195.684 178.316C195.684 176.895 195.296 175.72 194.519 174.793C193.742 173.865 192.597 173.401 191.082 173.401H186.499V183.111ZM191.082 168.83C194.187 168.83 196.636 169.7 198.431 171.44C200.226 173.181 201.124 175.459 201.124 178.277C201.124 181.107 200.226 183.382 198.431 185.102C196.636 186.822 194.187 187.683 191.082 187.683H186.499V194.245L189.406 194.854V198.408H178.172V194.854L181.059 194.245V173.015L178.172 172.406V168.83H181.059H191.082Z" fill="white"/>
    <path d="M224.183 185.407H214.999V193.858H223.754L223.997 190.324H228.132V198.409H206.671V194.853L209.559 194.245V173.014L206.671 172.405V168.83H209.559H228.095V176.936H223.922L223.679 173.402H214.999V180.836H224.183V185.407Z" fill="white"/>
    <path d="M243.181 185.329V193.862H248.192C249.632 193.862 250.732 193.519 251.489 192.835C252.247 192.151 252.626 191.14 252.626 189.797C252.626 188.349 252.303 187.241 251.657 186.476C251.011 185.712 249.992 185.329 248.602 185.329H243.181ZM243.181 181.225H247.093C248.547 181.225 249.663 180.901 250.446 180.25C251.228 179.6 251.62 178.652 251.62 177.406C251.62 176.038 251.226 175.029 250.437 174.379C249.648 173.729 248.471 173.404 246.906 173.404H243.181V181.225ZM246.906 168.834C250.099 168.834 252.588 169.51 254.377 170.864C256.166 172.218 257.06 174.244 257.06 176.939C257.06 178.307 256.727 179.529 256.063 180.607C255.399 181.682 254.433 182.491 253.166 183.033C254.793 183.412 256.013 184.225 256.826 185.471C257.64 186.717 258.047 188.16 258.047 189.797C258.047 192.628 257.19 194.772 255.475 196.229C253.762 197.684 251.334 198.412 248.192 198.412H234.854V194.857L237.741 194.247V173.018L234.854 172.408V168.834H237.741H246.906Z" fill="white"/>
    <path d="M273.45 186.057H279.672L276.617 175.635H276.505L273.45 186.057ZM263.614 194.853L265.551 194.548L273.803 168.83H279.374L287.571 194.548L289.508 194.853V198.408H280.269V194.853L282.15 194.487L280.958 190.425H272.165L270.972 194.487L272.854 194.853V198.408H263.614V194.853Z" fill="white"/>
    <path d="M70.4094 236.413C70.2985 239.406 69.9714 241.949 69.4314 244.042C68.8908 246.134 68.1866 247.899 67.317 249.334H77.9174V228.876H70.8562L70.4094 236.413ZM86.0574 261.158H81.1207V253.885H64.4852V261.158H59.4743L59.0649 249.334H61.1515C62.12 248.426 62.9635 246.995 63.6846 245.038C64.4047 243.081 64.8274 240.206 64.951 236.413L65.4549 228.45L62.8089 227.881V224.305H86.2437V227.881L83.3567 228.49V249.334H86.5606L86.0574 261.158Z" fill="white"/>
    <path d="M111.409 238.83C111.409 235.769 110.825 233.284 109.657 231.374C108.49 229.466 106.764 228.51 104.478 228.51C102.193 228.51 100.489 229.459 99.3654 231.354C98.2411 233.251 97.6782 235.742 97.6782 238.83V239.317C97.6782 242.433 98.2474 244.942 99.3838 246.844C100.52 248.748 102.225 249.699 104.497 249.699C106.796 249.699 108.521 248.748 109.676 246.844C110.831 244.942 111.409 242.433 111.409 239.317V238.83ZM116.83 239.317C116.83 243.651 115.694 247.234 113.42 250.065C111.148 252.895 108.173 254.311 104.497 254.311C100.833 254.311 97.8747 252.895 95.6203 250.065C93.3665 247.234 92.2383 243.651 92.2383 239.317V238.871C92.2383 234.564 93.3627 230.988 95.6114 228.145C97.8589 225.3 100.815 223.879 104.478 223.879C108.154 223.879 111.132 225.3 113.411 228.145C115.69 230.988 116.83 234.564 116.83 238.871V239.317Z" fill="white"/>
    <path d="M131.151 238.588H135.734C137.249 238.588 138.395 238.137 139.172 237.237C139.947 236.337 140.335 235.187 140.335 233.793C140.335 232.371 139.947 231.196 139.172 230.268C138.395 229.342 137.249 228.876 135.734 228.876H131.151V238.588ZM135.734 224.307C138.839 224.307 141.289 225.176 143.084 226.917C144.878 228.656 145.775 230.936 145.775 233.752C145.775 236.583 144.878 238.859 143.084 240.579C141.289 242.299 138.839 243.159 135.734 243.159H131.151V249.72L134.058 250.329V253.885H122.825V250.329L125.712 249.72V228.49L122.825 227.882V224.307H125.712H135.734Z" fill="white"/>
    <path d="M170.697 238.83C170.697 235.769 170.113 233.284 168.946 231.374C167.778 229.466 166.052 228.51 163.767 228.51C161.481 228.51 159.776 229.459 158.653 231.354C157.529 233.251 156.967 235.742 156.967 238.83V239.317C156.967 242.433 157.535 244.942 158.672 246.844C159.808 248.748 161.513 249.699 163.785 249.699C166.083 249.699 167.809 248.748 168.964 246.844C170.12 244.942 170.697 242.433 170.697 239.317V238.83ZM176.119 239.317C176.119 243.651 174.981 247.234 172.708 250.065C170.436 252.895 167.461 254.311 163.785 254.311C160.122 254.311 157.163 252.895 154.908 250.065C152.655 247.234 151.527 243.651 151.527 239.317V238.871C151.527 234.564 152.651 230.988 154.9 228.145C157.147 225.3 160.104 223.879 163.767 223.879C167.443 223.879 170.42 225.3 172.7 228.145C174.978 230.988 176.119 234.564 176.119 238.871V239.317Z" fill="white"/>
    <path d="M182.28 250.329L185.167 249.72V228.49L182.28 227.881V224.307H202.846V231.802H198.674L198.45 228.877H190.607V249.72L193.514 250.329V253.885H182.28V250.329Z" fill="white"/>
    <path d="M214.448 241.534H220.671L217.616 231.111H217.503L214.448 241.534ZM204.613 250.329L206.55 250.026L214.802 224.307H220.373L228.569 250.026L230.506 250.329V253.885H221.267V250.329L223.148 249.964L221.956 245.901H213.163L211.971 249.964L213.852 250.329V253.885H204.613V250.329Z" fill="white"/>
  </symbol>
  <symbol viewBox="0 0 404 335" id="sovereigns-road-full">
    <path d="M203.749 31.6184C198.446 31.6184 194.146 27.3172 194.146 22.0127C194.146 16.7066 198.446 12.4071 203.749 12.4071C209.051 12.4071 213.351 16.7066 213.351 22.0127C213.351 27.3172 209.051 31.6184 203.749 31.6184ZM203.77 0.0722656C193.011 0.0722656 183.533 10.0342 184.293 22.2549C184.887 31.8848 197.478 56.2811 202.093 64.9372C202.462 65.6308 203.142 65.9784 203.821 65.9784C204.487 65.9784 205.151 65.6464 205.528 64.9805C210.317 56.4903 223.248 32.6146 223.248 22.2549C223.248 10.0031 214.527 0.0722656 203.77 0.0722656Z" fill="white"/>
    <path d="M159.997 42.1953C138.54 42.1953 84.7182 48.0376 110.089 109.337C112.094 114.186 116.17 123.726 120.246 133.225H172.84V147.132H126.231C129.4 154.486 131.726 159.867 131.726 159.867L186.408 160.125V137.261V121.074V78.3644L168.317 42.5205C168.317 42.5205 165.055 42.1953 159.997 42.1953ZM159.997 55.4278H160.013L173.181 81.5156V119.992H172.84H128.969C125.821 112.633 123.589 107.361 122.311 104.275C117.75 93.2541 113.619 78.1603 119.849 68.8366C125.457 60.4399 140.467 55.4278 159.997 55.4278Z" fill="white"/>
    <path d="M247.499 42.1953C242.441 42.1953 239.179 42.5205 239.179 42.5205L221.088 78.3644V121.074V137.261V160.125L275.77 159.867C275.77 159.867 278.097 154.486 281.266 147.132H235.29V133.225H287.25C291.327 123.726 295.402 114.186 297.408 109.337C322.776 48.0428 268.959 42.1953 247.499 42.1953ZM247.499 55.4278C267.028 55.4278 282.037 60.4416 287.648 68.8384C293.875 78.1603 289.747 93.2541 285.186 104.275C283.913 107.351 281.679 112.622 278.528 119.992H235.29H234.316V81.5156L247.485 55.4278H247.499Z" fill="white"/>
    <path d="M200.082 92.0186H207.045V81.5723H200.082V92.0186Z" fill="white"/>
    <path d="M200.082 130.458H207.045V111.238H200.082V130.458Z" fill="white"/>
    <path d="M200.082 160.124H207.045V149.678H200.082V160.124Z" fill="white"/>
    <path d="M0 249.258L4.03712 248.476V221.255L0 220.473V215.891H28.7491V225.501H22.9157L22.6044 221.75H11.641V248.476L15.7024 249.258V253.817H0V249.258Z" fill="white"/>
    <path d="M62.2844 234.514C62.2844 230.59 61.4683 227.402 59.8362 224.955C58.2041 222.505 55.7922 221.281 52.5971 221.281C49.4019 221.281 47.0195 222.497 45.4495 224.928C43.8779 227.358 43.0913 230.555 43.0913 234.514V235.14C43.0913 239.133 43.8866 242.35 45.4755 244.79C47.0627 247.231 49.4469 248.45 52.623 248.45C55.8354 248.45 58.2473 247.231 59.8621 244.79C61.477 242.35 62.2844 239.133 62.2844 235.14V234.514ZM69.8625 235.14C69.8625 240.696 68.2735 245.288 65.0957 248.919C61.9196 252.549 57.7614 254.363 52.623 254.363C47.5018 254.363 43.3662 252.549 40.2143 248.919C37.0641 245.288 35.4873 240.696 35.4873 235.14V234.565C35.4873 229.043 37.0589 224.46 40.2021 220.813C43.3437 217.165 47.4759 215.342 52.5971 215.342C57.7356 215.342 61.8971 217.165 65.0836 220.813C68.2684 224.46 69.8625 229.043 69.8625 234.565V235.14Z" fill="white"/>
    <path d="M109.308 228.68H103.656L102.876 223.626C102.129 222.879 101.188 222.289 100.052 221.855C98.9134 221.421 97.572 221.203 96.0278 221.203C92.7294 221.203 90.1893 222.402 88.4104 224.798C86.6313 227.195 85.7426 230.32 85.7426 234.176V235.504C85.7426 239.359 86.6261 242.493 88.3983 244.907C90.1689 247.322 92.6691 248.529 95.8967 248.529C97.3904 248.529 98.7566 248.311 99.9996 247.877C101.239 247.443 102.199 246.853 102.876 246.106L103.656 241.053H109.308V248.555C107.78 250.326 105.831 251.737 103.463 252.787C101.092 253.839 98.4403 254.364 95.5077 254.364C90.4214 254.364 86.2544 252.601 83.0074 249.076C79.7604 245.55 78.1387 241.026 78.1387 235.504V234.228C78.1387 228.722 79.7517 224.198 82.9814 220.657C86.2111 217.114 90.3851 215.344 95.5077 215.344C98.4403 215.344 101.088 215.876 103.449 216.945C105.811 218.012 107.762 219.423 109.308 221.177V228.68Z" fill="white"/>
    <path d="M152.765 220.473L149.067 220.968L138.261 246.627C137.149 249.111 135.848 251.02 134.355 252.359C132.861 253.694 130.726 254.363 127.948 254.363C127.515 254.363 127.024 254.349 126.476 254.323C125.93 254.3 125.518 254.268 125.24 254.233L125.189 248.424C125.378 248.458 125.709 248.485 126.177 248.502C126.646 248.519 127.002 248.527 127.246 248.527C128.617 248.527 129.646 248.223 130.33 247.616C131.017 247.009 131.594 246.089 132.063 244.856L132.635 243.423L121.751 221.02L117.714 220.473V215.891H131.646V220.473L129.746 220.839L135.239 232.743L135.839 234.749H135.994L141.23 220.917L138.963 220.473V215.891H152.765V220.473Z" fill="white"/>
    <path d="M173.461 231.415C173.305 235.252 172.849 238.513 172.093 241.194C171.338 243.879 170.354 246.141 169.139 247.981H183.956V221.75H174.085L173.461 231.415ZM195.334 263.142H188.434V253.817H165.179V263.142H158.176L157.604 247.981H160.52C161.874 246.818 163.053 244.981 164.061 242.473C165.067 239.962 165.659 236.276 165.831 231.415L166.535 221.203L162.837 220.474V215.889H195.595V220.474L191.56 221.256V247.981H196.038L195.334 263.142Z" fill="white"/>
    <path d="M218.091 237.977H226.788L222.517 224.614H222.362L218.091 237.977ZM204.341 249.256L207.05 248.865L218.585 215.889H226.371L237.831 248.865L240.539 249.256V253.815H227.621V249.256L230.251 248.787L228.584 243.578H216.293L214.629 248.787L217.258 249.256V253.815H204.341V249.256Z" fill="white"/>
    <path d="M260.01 234.2H266.415C268.534 234.2 270.135 233.622 271.22 232.469C272.306 231.314 272.849 229.842 272.849 228.052C272.849 226.229 272.306 224.723 271.22 223.534C270.135 222.345 268.534 221.749 266.415 221.749H260.01V234.2ZM266.415 215.889C270.757 215.889 274.18 217.004 276.689 219.235C279.198 221.468 280.453 224.389 280.453 228.002C280.453 231.63 279.198 234.548 276.689 236.753C274.18 238.958 270.757 240.062 266.415 240.062H260.01V248.476L264.073 249.258V253.815H248.37V249.258L252.406 248.476V221.255L248.37 220.473V215.889H252.406H266.415Z" fill="white"/>
    <path d="M312.686 237.144H299.849V247.98H312.087L312.427 243.448H318.207V253.815H288.207V249.256L292.244 248.476V221.254L288.207 220.472V215.889H292.244H318.154V226.282H312.321L311.982 221.75H299.849V231.283H312.686V237.144Z" fill="white"/>
    <path d="M339.242 237.041V247.982H346.247C348.261 247.982 349.798 247.542 350.856 246.665C351.915 245.788 352.445 244.491 352.445 242.77C352.445 240.913 351.993 239.493 351.091 238.512C350.189 237.532 348.764 237.041 346.82 237.041H339.242ZM339.242 231.779H344.712C346.743 231.779 348.304 231.363 349.398 230.529C350.491 229.696 351.039 228.48 351.039 226.882C351.039 225.128 350.488 223.834 349.385 223C348.283 222.167 346.638 221.75 344.45 221.75H339.242V231.779ZM344.45 215.891C348.913 215.891 352.393 216.757 354.893 218.494C357.393 220.23 358.643 222.827 358.643 226.283C358.643 228.037 358.178 229.603 357.25 230.986C356.321 232.364 354.971 233.402 353.2 234.097C355.474 234.583 357.181 235.626 358.316 237.223C359.454 238.82 360.023 240.671 360.023 242.77C360.023 246.4 358.825 249.149 356.428 251.017C354.034 252.882 350.639 253.817 346.247 253.817H327.604V249.258L331.638 248.476V221.255L327.604 220.473V215.891H331.638H344.45Z" fill="white"/>
    <path d="M381.553 237.977H390.251L385.981 224.614H385.824L381.553 237.977ZM367.805 249.256L370.512 248.865L382.047 215.889H389.835L401.293 248.865L404.001 249.256V253.815H391.085V249.256L393.715 248.787L392.048 243.578H379.757L378.09 248.787L380.72 249.256V253.815H367.805V249.256Z" fill="white"/>
    <path d="M97.7338 302.544C97.5787 306.381 97.1216 309.642 96.3667 312.325C95.611 315.008 94.6267 317.27 93.4111 319.11H108.229V292.879H98.3584L97.7338 302.544ZM119.607 334.271H112.707V324.946H89.4527V334.271H82.4482L81.876 319.11H84.7927C86.1465 317.947 87.3256 316.111 88.3336 313.602C89.3401 311.092 89.9311 307.406 90.1038 302.544L90.8082 292.332L87.1095 291.603V287.018H119.868V291.603L115.832 292.385V319.11H120.311L119.607 334.271Z" fill="white"/>
    <path d="M155.045 305.644C155.045 301.718 154.229 298.532 152.596 296.083C150.964 293.636 148.552 292.411 145.357 292.411C142.162 292.411 139.78 293.627 138.21 296.057C136.638 298.489 135.851 301.683 135.851 305.644V306.268C135.851 310.263 136.647 313.48 138.235 315.919C139.823 318.361 142.207 319.58 145.383 319.58C148.596 319.58 151.008 318.361 152.623 315.919C154.237 313.48 155.045 310.263 155.045 306.268V305.644ZM162.623 306.268C162.623 311.825 161.034 316.419 157.856 320.049C154.68 323.677 150.522 325.493 145.383 325.493C140.262 325.493 136.126 323.677 132.975 320.049C129.824 316.419 128.247 311.825 128.247 306.268V305.695C128.247 300.173 129.819 295.589 132.962 291.943C136.104 288.295 140.236 286.473 145.357 286.473C150.495 286.473 154.658 288.295 157.844 291.943C161.029 295.589 162.623 300.173 162.623 305.695V306.268Z" fill="white"/>
    <path d="M182.642 305.331H189.047C191.166 305.331 192.767 304.753 193.853 303.598C194.936 302.445 195.479 300.971 195.479 299.183C195.479 297.36 194.936 295.854 193.853 294.663C192.767 293.476 191.166 292.878 189.047 292.878H182.642V305.331ZM189.047 287.02C193.388 287.02 196.813 288.134 199.321 290.366C201.83 292.597 203.084 295.519 203.084 299.131C203.084 302.761 201.83 305.679 199.321 307.884C196.813 310.089 193.388 311.193 189.047 311.193H182.642V319.605L186.705 320.387V324.945H171.003V320.387L175.038 319.605V292.384L171.003 291.604V287.02H175.038H189.047Z" fill="white"/>
    <path d="M237.921 305.644C237.921 301.718 237.105 298.532 235.473 296.083C233.841 293.636 231.429 292.411 228.234 292.411C225.039 292.411 222.656 293.627 221.086 296.057C219.514 298.489 218.728 301.683 218.728 305.644V306.268C218.728 310.263 219.523 313.48 221.112 315.919C222.699 318.361 225.083 319.58 228.259 319.58C231.472 319.58 233.884 318.361 235.499 315.919C237.114 313.48 237.921 310.263 237.921 306.268V305.644ZM245.499 306.268C245.499 311.825 243.91 316.419 240.732 320.049C237.556 323.677 233.398 325.493 228.259 325.493C223.139 325.493 219.003 323.677 215.851 320.049C212.701 316.419 211.124 311.825 211.124 306.268V305.695C211.124 300.173 212.696 295.589 215.839 291.943C218.98 288.295 223.113 286.473 228.234 286.473C233.372 286.473 237.534 288.295 240.721 291.943C243.905 295.589 245.499 300.173 245.499 305.695V306.268Z" fill="white"/>
    <path d="M254.112 320.387L258.148 319.605V292.384L254.112 291.602V287.02H282.86V296.63H277.028L276.715 292.879H265.752V319.605L269.815 320.387V324.945H254.112V320.387Z" fill="white"/>
    <path d="M299.078 309.108H307.777L303.507 295.745H303.349L299.078 309.108ZM285.33 320.387L288.038 319.998L299.573 287.02H307.36L318.818 319.998L321.525 320.387V324.945H308.611V320.387L311.24 319.918L309.574 314.708H297.282L295.615 319.918L298.245 320.387V324.945H285.33V320.387Z" fill="white"/>
  </symbol>
  <symbol viewBox="0 0 153 27" id="footer-logo">
    <path fill-rule="evenodd" clip-rule="evenodd" d="M153 19.6734C153 20.1271 152.906 20.5719 152.681 20.9722C152.465 21.3548 152.172 21.675 151.822 21.9375C151.435 22.2221 150.994 22.4179 150.531 22.5469C150.004 22.6936 149.456 22.7515 148.911 22.7515C148.214 22.7515 147.522 22.6625 146.851 22.4801C146.109 22.28 145.43 21.893 144.823 21.4348L144.706 21.3459L145.826 19.8602L145.947 19.9581C146.379 20.3184 146.869 20.6119 147.414 20.7721C147.953 20.9278 148.511 20.9945 149.073 20.9945C149.307 20.9945 149.541 20.9633 149.771 20.91C149.986 20.8566 150.198 20.7765 150.387 20.6609C150.562 20.5541 150.702 20.4162 150.81 20.2427C150.926 20.0604 150.967 19.8513 150.967 19.6378C150.967 19.3086 150.868 19.0284 150.576 18.8505C150.243 18.6503 149.847 18.5391 149.469 18.4724C148.961 18.3923 148.457 18.3034 147.953 18.2055C147.472 18.1121 147.004 17.9653 146.568 17.7474C146.163 17.5472 145.812 17.2714 145.538 16.9156C145.228 16.5152 145.129 16.017 145.129 15.5233C145.129 15.074 145.219 14.6337 145.426 14.2334C145.623 13.8464 145.898 13.5172 146.249 13.2548C146.609 12.9834 147.013 12.7877 147.441 12.6498C147.913 12.4986 148.403 12.4363 148.898 12.4363C149.573 12.4363 150.265 12.4941 150.917 12.6676C151.538 12.8322 152.109 13.1213 152.627 13.4905L152.744 13.575L151.723 15.074L151.601 14.9984C151.192 14.7449 150.747 14.5269 150.279 14.4024C149.829 14.2823 149.361 14.2289 148.898 14.2289C148.43 14.2289 147.949 14.3179 147.567 14.607C147.261 14.8383 147.085 15.1274 147.085 15.51C147.085 15.7991 147.202 16.0081 147.454 16.1549C147.773 16.3418 148.151 16.4619 148.511 16.5419C148.979 16.6487 149.451 16.7376 149.923 16.8177C150.427 16.9022 150.917 17.0446 151.381 17.2536C151.831 17.4582 152.222 17.7429 152.532 18.1254C152.888 18.5525 153 19.1218 153 19.6734ZM87.3354 19.8869L88.3789 16.5197L89.6923 12.5386H91.8693L88.244 22.6225H86.3549L82.7071 12.5386H84.902L86.2379 16.4796L87.3354 19.8869ZM6.49045 17.8141L8.11868 14.349L10.8984 8.70436H12.837V22.6269H10.705V13.6418L9.62547 15.9014L7.26408 20.6119H5.70332L3.45887 16.275L2.13649 13.624V22.6269H0V8.70436H1.99706L4.82173 14.349L6.49045 17.8141ZM20.6273 21.7284C20.0606 22.0353 19.4084 22.36 18.7877 22.5113C18.3379 22.6225 17.8656 22.7025 17.4023 22.7025C16.5117 22.7025 15.6616 22.4801 15.0004 21.8707C14.3482 21.2703 14.0919 20.4785 14.0919 19.6067C14.0919 19.0951 14.1998 18.5925 14.4877 18.161C14.7396 17.7785 15.0634 17.4627 15.4502 17.218C15.8281 16.9778 16.2374 16.8088 16.6737 16.7021C17.0515 16.6131 17.4473 16.5508 17.8386 16.5508H20.5913V15.9459C20.5913 15.4655 20.4969 14.9273 20.0741 14.6292C19.6333 14.3223 19.0215 14.2511 18.4998 14.2511C18.0905 14.2511 17.6587 14.3179 17.2584 14.3979C16.7186 14.5047 16.2329 14.7894 15.8101 15.1319L15.6841 15.2342L14.6811 13.6996L14.789 13.6195C15.3828 13.1658 16.0529 12.8055 16.7861 12.6409C17.3933 12.5075 18.0185 12.4185 18.6392 12.4185C19.6602 12.4185 20.8252 12.5876 21.6078 13.2993C22.368 13.9887 22.5884 15.0073 22.5884 15.9904V22.6269H20.8252L20.6273 21.7284ZM26.2227 15.5366V22.6269H24.2076V12.5208H26.0068L26.1687 13.8241C26.3216 13.6907 26.488 13.5706 26.65 13.4549C26.9288 13.2637 27.2257 13.0902 27.527 12.939C27.8509 12.7788 28.1882 12.6498 28.5346 12.552C28.8854 12.4497 29.2497 12.3963 29.6141 12.3963H29.7625V14.4736L29.6276 14.4869C28.9079 14.5492 28.1298 14.6737 27.4596 14.9406C27.0548 15.1141 26.605 15.3053 26.2227 15.5366ZM38.295 19.6734C38.295 20.1271 38.2005 20.5719 37.9756 20.9722C37.7597 21.3548 37.4674 21.675 37.1165 21.9375C36.7297 22.2221 36.2889 22.4179 35.8256 22.5469C35.2994 22.6892 34.7506 22.7515 34.2064 22.7515C33.5092 22.7515 32.8166 22.6625 32.1464 22.4801C31.4042 22.28 30.725 21.893 30.1133 21.4348L29.9964 21.3459L31.1164 19.8602L31.2378 19.9581C31.6696 20.3184 32.1599 20.6119 32.7041 20.7721C33.2439 20.9278 33.8016 20.9945 34.3638 20.9945C34.5977 20.9945 34.8316 20.9633 35.061 20.91C35.2769 20.8566 35.4883 20.7765 35.6772 20.6609C35.8526 20.5541 35.9921 20.4162 36.1 20.2427C36.217 20.0604 36.2574 19.8513 36.2574 19.6378C36.2574 19.3086 36.1585 19.0284 35.8661 18.8505C35.5333 18.6503 35.1375 18.5391 34.7596 18.4724C34.2514 18.3923 33.7476 18.3034 33.2439 18.2055C32.7626 18.1121 32.2948 17.9653 31.854 17.7474C31.4492 17.5472 31.0984 17.2714 30.824 16.9156C30.5181 16.5152 30.4147 16.017 30.4147 15.5233C30.4147 15.074 30.5046 14.6381 30.7115 14.2334C30.9095 13.8464 31.1838 13.5172 31.5347 13.2548C31.8945 12.9834 32.2993 12.7877 32.7266 12.6498C33.1989 12.4986 33.6891 12.4363 34.1839 12.4363C34.8586 12.4363 35.5513 12.4941 36.2035 12.6676C36.8242 12.8322 37.3954 13.1213 37.9127 13.4905L38.0296 13.575L37.0086 15.074L36.8871 14.9984C36.4778 14.7449 36.0325 14.5269 35.5648 14.4024C35.115 14.2823 34.6472 14.2289 34.1839 14.2289C33.7161 14.2289 33.2349 14.3179 32.8525 14.607C32.5467 14.8383 32.3713 15.1274 32.3713 15.51C32.3713 15.7991 32.4882 16.0081 32.7401 16.1549C33.0594 16.3418 33.4373 16.4619 33.7971 16.5419C34.2649 16.6487 34.7372 16.7376 35.2094 16.8177C35.7132 16.9022 36.2035 17.0446 36.6667 17.2536C37.1165 17.4582 37.5079 17.7474 37.8182 18.1254C38.1825 18.5525 38.295 19.1218 38.295 19.6734ZM41.4795 15.3988V22.6269H39.4644V8.17059H41.4795V13.5128C42.0237 13.1747 42.6579 12.8189 43.2516 12.6498C43.6789 12.5297 44.1467 12.4274 44.592 12.4274C45.5366 12.4274 46.4766 12.6543 47.1153 13.3882C47.7585 14.1266 47.9429 15.1274 47.9429 16.0749V22.6314H45.9279V16.2884C45.9279 15.8035 45.8604 15.1452 45.4736 14.7938C45.1498 14.5002 44.7494 14.3757 44.3131 14.3757C43.8499 14.3757 43.3731 14.5047 42.9458 14.6648C42.4285 14.8561 41.9428 15.1052 41.4795 15.3988ZM55.8547 19.6778V12.5208H57.8698V22.6269H56.0796L55.8952 21.6661C55.5938 21.8441 55.288 22.0175 54.9731 22.1688C54.6943 22.3022 54.4064 22.4268 54.114 22.5202C53.8936 22.5913 53.6597 22.6536 53.4259 22.6848C53.2369 22.7114 53.048 22.7248 52.8546 22.7248C51.8876 22.7248 50.97 22.4757 50.2863 21.7684C49.5847 21.0434 49.3643 20.0515 49.3643 19.0773V12.5208H51.3793V18.8994C51.3793 19.3932 51.4513 20.047 51.8426 20.4029C52.1709 20.7009 52.5713 20.821 53.0121 20.8077C53.4618 20.8077 53.9341 20.6653 54.3479 20.5007C54.8877 20.2961 55.3869 20.007 55.8547 19.6778ZM66.6811 13.8464C66.987 13.6106 67.3018 13.3793 67.6302 13.1792C67.9135 13.0057 68.2059 12.8366 68.5073 12.7032C68.7322 12.6009 68.9795 12.5164 69.2224 12.4764C69.4203 12.4452 69.6227 12.423 69.8251 12.423C70.6887 12.423 71.5253 12.632 72.1685 13.237C72.8567 13.8864 73.0321 14.8739 73.0321 15.7768V22.6314H71.0171V16.1327C71.0171 15.6968 70.9631 15.1319 70.6707 14.7805C70.3964 14.4513 69.9286 14.3801 69.5238 14.3801C69.1505 14.3801 68.7681 14.5136 68.4398 14.6826C67.981 14.9139 67.5357 15.2119 67.1264 15.5233C67.1444 15.6034 67.1534 15.6879 67.1624 15.768C67.1714 15.8836 67.1714 15.9993 67.1714 16.1149V22.6314H65.1563V16.0704C65.1563 15.6434 65.0979 15.0651 64.7695 14.7493C64.4996 14.4913 64.1758 14.3757 63.8025 14.3757C63.4022 14.3757 63.0153 14.4513 62.6465 14.5937C62.1877 14.7716 61.72 15.0563 61.3106 15.3365V22.6269H59.2956V12.5208H61.0903L61.2522 13.535C61.5086 13.3571 61.7694 13.1836 62.0438 13.0324C62.3002 12.89 62.5656 12.7566 62.8399 12.6498C63.0558 12.5653 63.2852 12.4941 63.5146 12.463C63.708 12.4363 63.9059 12.423 64.1038 12.423C64.6706 12.423 65.2328 12.5342 65.7231 12.8322C66.1414 13.0813 66.4562 13.4282 66.6811 13.8464ZM82.7116 19.0195C82.7116 19.5666 82.6126 20.1049 82.3652 20.5986C82.1358 21.0523 81.8255 21.4482 81.4252 21.764C81.0204 22.0887 80.5616 22.3245 80.0668 22.4801C79.5406 22.6492 78.9918 22.7248 78.4386 22.7248C77.8809 22.7248 77.3231 22.6492 76.7924 22.4801C76.3021 22.3245 75.8478 22.0887 75.452 21.7595C75.0652 21.4393 74.7638 21.0434 74.5434 20.5941C74.305 20.1004 74.2106 19.5622 74.2106 19.0195V16.1683C74.2106 15.6212 74.3095 15.0829 74.5569 14.5892C74.7818 14.1355 75.0877 13.7441 75.4745 13.4149C75.8703 13.0813 76.3291 12.8366 76.8238 12.6765C77.3546 12.503 77.9033 12.423 78.4611 12.423C79.0368 12.423 79.6125 12.4986 80.1568 12.6765C80.6516 12.8411 81.1103 13.0813 81.5061 13.4149C81.893 13.7396 82.1898 14.1355 82.3967 14.5937C82.6216 15.0874 82.7116 15.6256 82.7116 16.1683V19.0195ZM20.5958 19.8824V18.2544H18.122C17.8971 18.2544 17.6722 18.2722 17.4518 18.3034C17.2269 18.3345 17.011 18.3923 16.8041 18.4902C16.6107 18.5792 16.4533 18.717 16.3318 18.895C16.1879 19.104 16.1474 19.3665 16.1474 19.6156C16.1474 19.9936 16.2598 20.3362 16.5792 20.5675C16.9165 20.8121 17.3303 20.8966 17.7442 20.8966C18.0005 20.8966 18.2524 20.8566 18.4953 20.7943C18.7607 20.7231 19.0215 20.6386 19.2779 20.5319C19.5298 20.4296 19.7772 20.3184 20.0156 20.1894C20.209 20.0871 20.4024 19.9848 20.5958 19.8824ZM80.719 16.4663C80.719 16.1238 80.6695 15.7635 80.5121 15.4521C80.3817 15.1941 80.2108 14.9628 79.9814 14.7805C79.7655 14.6114 79.5271 14.4869 79.2617 14.4113C79.0098 14.3401 78.7444 14.3001 78.4836 14.3001C78.2137 14.3001 77.9438 14.3401 77.6829 14.4113C77.4176 14.4869 77.1792 14.6114 76.9633 14.7805C76.7339 14.9628 76.563 15.1941 76.4325 15.4521C76.2796 15.7635 76.2256 16.1238 76.2256 16.4663V18.6815C76.2256 19.024 76.2706 19.3843 76.4055 19.7045C76.5135 19.9581 76.6664 20.1894 76.8778 20.3717C77.0802 20.5497 77.3186 20.6653 77.5795 20.7365C77.8718 20.8165 78.1777 20.8477 78.4791 20.8477C78.7444 20.8477 79.0053 20.8077 79.2572 20.7365C79.5226 20.6609 79.761 20.5363 79.9769 20.3673C80.2063 20.1849 80.3772 19.9536 80.5076 19.6956C80.6605 19.3843 80.7145 19.024 80.7145 18.6815V16.4663H80.719ZM106.694 24.9622C109.834 24.9622 112.672 23.7034 114.728 21.6706C116.59 19.8291 117.809 17.347 118.024 14.5892L114.984 14.4958L114.395 12.7432L118.011 12.7477V12.7432H120.08C120.102 13.068 120.116 13.3927 120.116 13.7263C120.116 17.3915 118.614 20.7098 116.185 23.1118C113.756 25.5137 110.401 26.9994 106.694 26.9994C102.988 26.9994 99.6326 25.5137 97.2038 23.1118C94.7749 20.7098 93.2726 17.3915 93.2726 13.7263C93.2726 10.061 94.7749 6.74274 97.2038 4.34077C99.6326 1.93879 102.988 0.453125 106.694 0.453125C109.604 0.453125 112.299 1.36943 114.498 2.92627L113.189 3.60683C112.411 4.01161 112.438 3.95378 111.669 3.60238C111.467 3.51342 111.269 3.42001 111.062 3.3355C110.365 3.03747 109.64 2.81507 108.903 2.66383C108.165 2.5126 107.409 2.43698 106.654 2.43698C103.636 2.43698 100.78 3.63797 98.6701 5.76416C98.4452 5.98657 98.2338 6.22232 98.0314 6.46251C96.3492 8.42413 95.3326 10.9595 95.3326 13.7307C95.3326 16.8355 96.6055 19.6422 98.6611 21.675C100.712 23.7034 103.555 24.9622 106.694 24.9622ZM123.768 19.8691C123.768 20.1093 123.791 20.5675 124.043 20.7009C124.321 20.8521 124.825 20.8477 125.136 20.8299L125.284 20.821L125.334 22.6403L125.203 22.6581C125.023 22.6848 124.843 22.707 124.663 22.7203C124.501 22.7337 124.344 22.7381 124.182 22.7381C123.795 22.7381 123.363 22.7025 122.999 22.5602C122.702 22.4446 122.446 22.2666 122.248 22.022C122.05 21.7729 121.929 21.4793 121.87 21.1679C121.798 20.8121 121.776 20.4429 121.776 20.0826V8.17059H123.773V19.8691H123.768ZM132.598 21.7284C132.031 22.0353 131.374 22.36 130.758 22.5113C130.308 22.6225 129.836 22.7025 129.373 22.7025C128.482 22.7025 127.636 22.4801 126.971 21.8707C126.319 21.2703 126.062 20.4785 126.062 19.6067C126.062 19.0951 126.17 18.5925 126.458 18.161C126.714 17.7785 127.034 17.4627 127.421 17.218C127.798 16.9778 128.208 16.8088 128.644 16.7021C129.022 16.6131 129.418 16.5508 129.809 16.5508H132.562V15.9459C132.562 15.4655 132.467 14.9273 132.044 14.6292C131.604 14.3223 130.992 14.2511 130.47 14.2511C130.061 14.2511 129.629 14.3179 129.229 14.3979C128.689 14.5047 128.203 14.7894 127.78 15.1319L127.654 15.2342L126.651 13.6996L126.759 13.6195C127.353 13.1658 128.023 12.8055 128.756 12.6409C129.364 12.5075 129.989 12.4185 130.61 12.4185C131.631 12.4185 132.796 12.5876 133.578 13.2993C134.338 13.9887 134.554 15.0073 134.554 15.9904V22.6269H132.787L132.598 21.7284ZM143.973 19.6734C143.973 20.1271 143.878 20.5719 143.653 20.9722C143.438 21.3548 143.145 21.675 142.794 21.9375C142.407 22.2221 141.967 22.4179 141.503 22.5469C140.977 22.6936 140.428 22.7515 139.884 22.7515C139.187 22.7515 138.494 22.6625 137.824 22.4801C137.082 22.28 136.403 21.893 135.791 21.4348L135.674 21.3459L136.794 19.8602L136.916 19.9581C137.347 20.3184 137.838 20.6119 138.382 20.7721C138.922 20.9278 139.479 20.9945 140.042 20.9945C140.275 20.9945 140.509 20.9633 140.739 20.91C140.955 20.8566 141.166 20.7765 141.355 20.6609C141.53 20.5541 141.67 20.4162 141.778 20.2427C141.895 20.0604 141.935 19.8513 141.935 19.6378C141.935 19.3086 141.836 19.0284 141.544 18.8505C141.211 18.6503 140.815 18.5391 140.437 18.4724C139.929 18.3923 139.425 18.3034 138.922 18.2055C138.44 18.1121 137.973 17.9653 137.536 17.7474C137.131 17.5472 136.781 17.2714 136.506 16.9156C136.2 16.5152 136.097 16.017 136.097 15.5233C136.097 15.074 136.187 14.6381 136.394 14.2334C136.592 13.8419 136.866 13.5172 137.217 13.2548C137.577 12.9834 137.982 12.7877 138.413 12.6498C138.886 12.4986 139.376 12.4363 139.871 12.4363C140.545 12.4363 141.238 12.4941 141.89 12.6676C142.511 12.8322 143.082 13.1213 143.599 13.4905L143.716 13.575L142.7 15.074L142.578 14.9984C142.169 14.7449 141.724 14.5269 141.256 14.4024C140.806 14.2823 140.338 14.2289 139.875 14.2289C139.407 14.2289 138.926 14.3179 138.544 14.607C138.238 14.8383 138.063 15.1274 138.063 15.51C138.063 15.7991 138.179 16.0081 138.431 16.1549C138.751 16.3418 139.129 16.4619 139.488 16.5419C139.956 16.6487 140.428 16.7376 140.901 16.8177C141.404 16.9022 141.895 17.0446 142.358 17.2536C142.808 17.4582 143.199 17.7474 143.509 18.1254C143.86 18.5525 143.973 19.1218 143.973 19.6734ZM132.566 18.2544H130.092C129.867 18.2544 129.642 18.2722 129.422 18.3034C129.197 18.3345 128.981 18.3923 128.774 18.4902C128.581 18.5792 128.424 18.717 128.302 18.895C128.158 19.104 128.118 19.3665 128.118 19.6156C128.118 19.9936 128.23 20.3362 128.549 20.5675C128.887 20.8121 129.301 20.8966 129.714 20.8966C129.966 20.8966 130.223 20.8566 130.466 20.7943C130.731 20.7231 130.992 20.6386 131.248 20.5319C131.5 20.4296 131.747 20.3184 131.986 20.1894C132.179 20.0871 132.373 19.9848 132.566 19.8869V18.2544Z" fill="#E9EAE8"/>
    <path d="M102.165 17.8142L104.306 12.7701L105.017 14.0155L103.402 17.8142H102.165ZM98.832 17.8142L102.61 8.9091L102.853 8.33085H103.334L103.631 8.85128L106.694 14.2246L107.571 12.69L108.129 14.0022L107.194 15.648L106.807 16.3285H106.591L106.204 15.648L103.217 10.4081L100.073 17.8187H98.832V17.8142ZM108.552 10.9597L109.753 8.85128L110.05 8.33085H110.531L110.774 8.9091L114.552 17.8142H113.315L110.171 10.4037L109.105 12.2719L108.552 10.9597ZM105.08 10.9463L106.168 8.38423L106.46 7.69922H106.933L107.225 8.38423L108.314 10.9463L109.087 12.7701L111.228 17.8142H109.991L108.017 13.1659L107.603 12.1874L106.699 10.0567L105.795 12.1874L105.08 10.9463Z" fill="#F18500"/>
    <path fill-rule="evenodd" clip-rule="evenodd" d="M115.919 9.49226C116.032 8.61598 116.747 7.71302 117.282 7.0369L120.975 2.36194L121.807 1.93048L117.125 7.85535C116.715 8.37578 116.288 8.91845 116 9.5145L115.883 9.75914L115.919 9.49226ZM112.208 5.92932C111.718 5.88929 111.291 5.66244 110.846 5.47117C107.436 4.01219 103.91 4.27018 100.919 6.51203C97.9457 8.85173 96.5019 12.8105 97.5274 16.4713L97.5364 16.5114L97.4554 16.5381L97.4419 16.498C96.0026 12.6638 97.3925 8.54036 100.581 6.04942C103.555 3.72751 107.616 3.30939 111.021 4.9374C112.186 5.46672 112.609 5.53344 113.81 4.91071L123.273 0L122.428 1.07199L114.053 5.42224C113.486 5.71137 112.861 5.9827 112.208 5.92932ZM116.297 15.3237C115.852 19.2736 112.897 22.2895 109.024 23.188C105.624 23.9797 101.967 22.9967 99.6369 20.3679L99.6099 20.3367L99.6729 20.2789L99.7044 20.3101C102.129 22.6675 105.669 23.397 108.925 22.6275C112.537 21.7735 115.469 18.9267 116.212 15.3104L116.221 15.2703L116.302 15.2837L116.297 15.3237Z" fill="#B3C8E9"/>
  </symbol>
  <symbol viewBox="0 0 16 16" id="close-ticket">
    <path fill-rule="evenodd" clip-rule="evenodd" d="M8.61864 8.32131L15.1679 15.1948L14.4781 15.9187L7.92882 9.04529L1.37958 15.9187L0.689749 15.1948L7.23899 8.32131L0 0.723975L0.689827 0L7.92882 7.59734L15.1678 0L15.8576 0.723975L8.61864 8.32131Z" fill="white" fill-opacity="0.2"/>
  </symbol>
</svg>
