<svg width="31" height="30" viewBox="0 0 31 30" fill="none" xmlns="http://www.w3.org/2000/svg">
<path fill-rule="evenodd" clip-rule="evenodd" d="M8.33824 26.6133C8.98815 26.6133 9.51639 27.1415 9.51639 27.7914C9.51639 28.4413 8.98815 28.9681 8.33824 28.9681C7.68833 28.9681 7.16162 28.4413 7.16162 27.7914C7.16162 27.1415 7.68833 26.6133 8.33824 26.6133Z" stroke="white" stroke-width="1.5" stroke-linecap="round" stroke-linejoin="round"/>
<path fill-rule="evenodd" clip-rule="evenodd" d="M25.6677 26.6133C26.3176 26.6133 26.8458 27.1415 26.8458 27.7914C26.8458 28.4413 26.3176 28.9681 25.6677 28.9681C25.0177 28.9681 24.4895 28.4413 24.4895 27.7914C24.4895 27.1415 25.0177 26.6133 25.6677 26.6133Z" stroke="white" stroke-width="1.5" stroke-linecap="round" stroke-linejoin="round"/>
<path d="M1.14233 1.0918L4.34568 1.64622L5.82877 19.3155C5.9489 20.7554 7.15169 21.8612 8.59628 21.8612H25.4015C26.7814 21.8612 27.9519 20.8478 28.1506 19.4803L29.6121 9.38046C29.7923 8.13454 28.8267 7.01953 27.5684 7.01953H4.86007" stroke="white" stroke-width="1.5" stroke-linecap="round" stroke-linejoin="round"/>
<path d="M18.6614 12.7109H22.932" stroke="white" stroke-width="1.5" stroke-linecap="round" stroke-linejoin="round"/>
</svg>
