<svg width="52" height="50" viewBox="0 0 52 50" fill="none" xmlns="http://www.w3.org/2000/svg">
<path d="M1.32666 18.6992H50.7689" stroke="white" stroke-width="1.5" stroke-linecap="round" stroke-linejoin="round"/>
<path d="M13.7126 37.5683H13.7383M38.3568 28.1562H38.3825H38.3568ZM26.0476 28.1562H26.0733H26.0476ZM13.7126 28.1562H13.7383H13.7126ZM38.3568 37.5683H38.3825H38.3568ZM26.0476 37.5683H26.0733H26.0476Z" stroke="white" stroke-width="1.5" stroke-linecap="round" stroke-linejoin="round"/>
<path d="M37.2515 0.767578V8.73677" stroke="white" stroke-width="1.5" stroke-linecap="round" stroke-linejoin="round"/>
<path d="M14.8433 0.767578V8.73677" stroke="white" stroke-width="1.5" stroke-linecap="round" stroke-linejoin="round"/>
<path fill-rule="evenodd" clip-rule="evenodd" d="M37.7913 4.5918H14.3036C6.15747 4.5918 1.06934 8.55352 1.06934 15.8358V37.7512C1.06934 45.148 6.15747 49.2013 14.3036 49.2013H37.7656C45.9374 49.2013 50.9999 45.2167 50.9999 37.9344V15.8358C51.0255 8.55352 45.9631 4.5918 37.7913 4.5918Z" stroke="white" stroke-width="1.5" stroke-linecap="round" stroke-linejoin="round"/>
</svg>
