<svg width="153" height="27" viewBox="0 0 153 27" fill="none" xmlns="http://www.w3.org/2000/svg">
<path fill-rule="evenodd" clip-rule="evenodd" d="M153 19.6734C153 20.1271 152.906 20.5719 152.681 20.9722C152.465 21.3548 152.172 21.675 151.822 21.9375C151.435 22.2221 150.994 22.4179 150.531 22.5469C150.004 22.6936 149.456 22.7515 148.911 22.7515C148.214 22.7515 147.522 22.6625 146.851 22.4801C146.109 22.28 145.43 21.893 144.823 21.4348L144.706 21.3459L145.826 19.8602L145.947 19.9581C146.379 20.3184 146.869 20.6119 147.414 20.7721C147.953 20.9278 148.511 20.9945 149.073 20.9945C149.307 20.9945 149.541 20.9633 149.771 20.91C149.986 20.8566 150.198 20.7765 150.387 20.6609C150.562 20.5541 150.702 20.4162 150.81 20.2427C150.926 20.0604 150.967 19.8513 150.967 19.6378C150.967 19.3086 150.868 19.0284 150.576 18.8505C150.243 18.6503 149.847 18.5391 149.469 18.4724C148.961 18.3923 148.457 18.3034 147.953 18.2055C147.472 18.1121 147.004 17.9653 146.568 17.7474C146.163 17.5472 145.812 17.2714 145.538 16.9156C145.228 16.5152 145.129 16.017 145.129 15.5233C145.129 15.074 145.219 14.6337 145.426 14.2334C145.623 13.8464 145.898 13.5172 146.249 13.2548C146.609 12.9834 147.013 12.7877 147.441 12.6498C147.913 12.4986 148.403 12.4363 148.898 12.4363C149.573 12.4363 150.265 12.4941 150.917 12.6676C151.538 12.8322 152.109 13.1213 152.627 13.4905L152.744 13.575L151.723 15.074L151.601 14.9984C151.192 14.7449 150.747 14.5269 150.279 14.4024C149.829 14.2823 149.361 14.2289 148.898 14.2289C148.43 14.2289 147.949 14.3179 147.567 14.607C147.261 14.8383 147.085 15.1274 147.085 15.51C147.085 15.7991 147.202 16.0081 147.454 16.1549C147.773 16.3418 148.151 16.4619 148.511 16.5419C148.979 16.6487 149.451 16.7376 149.923 16.8177C150.427 16.9022 150.917 17.0446 151.381 17.2536C151.831 17.4582 152.222 17.7429 152.532 18.1254C152.888 18.5525 153 19.1218 153 19.6734ZM87.3354 19.8869L88.3789 16.5197L89.6923 12.5386H91.8693L88.244 22.6225H86.3549L82.7071 12.5386H84.902L86.2379 16.4796L87.3354 19.8869ZM6.49045 17.8141L8.11868 14.349L10.8984 8.70436H12.837V22.6269H10.705V13.6418L9.62547 15.9014L7.26408 20.6119H5.70332L3.45887 16.275L2.13649 13.624V22.6269H0V8.70436H1.99706L4.82173 14.349L6.49045 17.8141ZM20.6273 21.7284C20.0606 22.0353 19.4084 22.36 18.7877 22.5113C18.3379 22.6225 17.8656 22.7025 17.4023 22.7025C16.5117 22.7025 15.6616 22.4801 15.0004 21.8707C14.3482 21.2703 14.0919 20.4785 14.0919 19.6067C14.0919 19.0951 14.1998 18.5925 14.4877 18.161C14.7396 17.7785 15.0634 17.4627 15.4502 17.218C15.8281 16.9778 16.2374 16.8088 16.6737 16.7021C17.0515 16.6131 17.4473 16.5508 17.8386 16.5508H20.5913V15.9459C20.5913 15.4655 20.4969 14.9273 20.0741 14.6292C19.6333 14.3223 19.0215 14.2511 18.4998 14.2511C18.0905 14.2511 17.6587 14.3179 17.2584 14.3979C16.7186 14.5047 16.2329 14.7894 15.8101 15.1319L15.6841 15.2342L14.6811 13.6996L14.789 13.6195C15.3828 13.1658 16.0529 12.8055 16.7861 12.6409C17.3933 12.5075 18.0185 12.4185 18.6392 12.4185C19.6602 12.4185 20.8252 12.5876 21.6078 13.2993C22.368 13.9887 22.5884 15.0073 22.5884 15.9904V22.6269H20.8252L20.6273 21.7284ZM26.2227 15.5366V22.6269H24.2076V12.5208H26.0068L26.1687 13.8241C26.3216 13.6907 26.488 13.5706 26.65 13.4549C26.9288 13.2637 27.2257 13.0902 27.527 12.939C27.8509 12.7788 28.1882 12.6498 28.5346 12.552C28.8854 12.4497 29.2497 12.3963 29.6141 12.3963H29.7625V14.4736L29.6276 14.4869C28.9079 14.5492 28.1298 14.6737 27.4596 14.9406C27.0548 15.1141 26.605 15.3053 26.2227 15.5366ZM38.295 19.6734C38.295 20.1271 38.2005 20.5719 37.9756 20.9722C37.7597 21.3548 37.4674 21.675 37.1165 21.9375C36.7297 22.2221 36.2889 22.4179 35.8256 22.5469C35.2994 22.6892 34.7506 22.7515 34.2064 22.7515C33.5092 22.7515 32.8166 22.6625 32.1464 22.4801C31.4042 22.28 30.725 21.893 30.1133 21.4348L29.9964 21.3459L31.1164 19.8602L31.2378 19.9581C31.6696 20.3184 32.1599 20.6119 32.7041 20.7721C33.2439 20.9278 33.8016 20.9945 34.3638 20.9945C34.5977 20.9945 34.8316 20.9633 35.061 20.91C35.2769 20.8566 35.4883 20.7765 35.6772 20.6609C35.8526 20.5541 35.9921 20.4162 36.1 20.2427C36.217 20.0604 36.2574 19.8513 36.2574 19.6378C36.2574 19.3086 36.1585 19.0284 35.8661 18.8505C35.5333 18.6503 35.1375 18.5391 34.7596 18.4724C34.2514 18.3923 33.7476 18.3034 33.2439 18.2055C32.7626 18.1121 32.2948 17.9653 31.854 17.7474C31.4492 17.5472 31.0984 17.2714 30.824 16.9156C30.5181 16.5152 30.4147 16.017 30.4147 15.5233C30.4147 15.074 30.5046 14.6381 30.7115 14.2334C30.9095 13.8464 31.1838 13.5172 31.5347 13.2548C31.8945 12.9834 32.2993 12.7877 32.7266 12.6498C33.1989 12.4986 33.6891 12.4363 34.1839 12.4363C34.8586 12.4363 35.5513 12.4941 36.2035 12.6676C36.8242 12.8322 37.3954 13.1213 37.9127 13.4905L38.0296 13.575L37.0086 15.074L36.8871 14.9984C36.4778 14.7449 36.0325 14.5269 35.5648 14.4024C35.115 14.2823 34.6472 14.2289 34.1839 14.2289C33.7161 14.2289 33.2349 14.3179 32.8525 14.607C32.5467 14.8383 32.3713 15.1274 32.3713 15.51C32.3713 15.7991 32.4882 16.0081 32.7401 16.1549C33.0594 16.3418 33.4373 16.4619 33.7971 16.5419C34.2649 16.6487 34.7372 16.7376 35.2094 16.8177C35.7132 16.9022 36.2035 17.0446 36.6667 17.2536C37.1165 17.4582 37.5079 17.7474 37.8182 18.1254C38.1825 18.5525 38.295 19.1218 38.295 19.6734ZM41.4795 15.3988V22.6269H39.4644V8.17059H41.4795V13.5128C42.0237 13.1747 42.6579 12.8189 43.2516 12.6498C43.6789 12.5297 44.1467 12.4274 44.592 12.4274C45.5366 12.4274 46.4766 12.6543 47.1153 13.3882C47.7585 14.1266 47.9429 15.1274 47.9429 16.0749V22.6314H45.9279V16.2884C45.9279 15.8035 45.8604 15.1452 45.4736 14.7938C45.1498 14.5002 44.7494 14.3757 44.3131 14.3757C43.8499 14.3757 43.3731 14.5047 42.9458 14.6648C42.4285 14.8561 41.9428 15.1052 41.4795 15.3988ZM55.8547 19.6778V12.5208H57.8698V22.6269H56.0796L55.8952 21.6661C55.5938 21.8441 55.288 22.0175 54.9731 22.1688C54.6943 22.3022 54.4064 22.4268 54.114 22.5202C53.8936 22.5913 53.6597 22.6536 53.4259 22.6848C53.2369 22.7114 53.048 22.7248 52.8546 22.7248C51.8876 22.7248 50.97 22.4757 50.2863 21.7684C49.5847 21.0434 49.3643 20.0515 49.3643 19.0773V12.5208H51.3793V18.8994C51.3793 19.3932 51.4513 20.047 51.8426 20.4029C52.1709 20.7009 52.5713 20.821 53.0121 20.8077C53.4618 20.8077 53.9341 20.6653 54.3479 20.5007C54.8877 20.2961 55.3869 20.007 55.8547 19.6778ZM66.6811 13.8464C66.987 13.6106 67.3018 13.3793 67.6302 13.1792C67.9135 13.0057 68.2059 12.8366 68.5073 12.7032C68.7322 12.6009 68.9795 12.5164 69.2224 12.4764C69.4203 12.4452 69.6227 12.423 69.8251 12.423C70.6887 12.423 71.5253 12.632 72.1685 13.237C72.8567 13.8864 73.0321 14.8739 73.0321 15.7768V22.6314H71.0171V16.1327C71.0171 15.6968 70.9631 15.1319 70.6707 14.7805C70.3964 14.4513 69.9286 14.3801 69.5238 14.3801C69.1505 14.3801 68.7681 14.5136 68.4398 14.6826C67.981 14.9139 67.5357 15.2119 67.1264 15.5233C67.1444 15.6034 67.1534 15.6879 67.1624 15.768C67.1714 15.8836 67.1714 15.9993 67.1714 16.1149V22.6314H65.1563V16.0704C65.1563 15.6434 65.0979 15.0651 64.7695 14.7493C64.4996 14.4913 64.1758 14.3757 63.8025 14.3757C63.4022 14.3757 63.0153 14.4513 62.6465 14.5937C62.1877 14.7716 61.72 15.0563 61.3106 15.3365V22.6269H59.2956V12.5208H61.0903L61.2522 13.535C61.5086 13.3571 61.7694 13.1836 62.0438 13.0324C62.3002 12.89 62.5656 12.7566 62.8399 12.6498C63.0558 12.5653 63.2852 12.4941 63.5146 12.463C63.708 12.4363 63.9059 12.423 64.1038 12.423C64.6706 12.423 65.2328 12.5342 65.7231 12.8322C66.1414 13.0813 66.4562 13.4282 66.6811 13.8464ZM82.7116 19.0195C82.7116 19.5666 82.6126 20.1049 82.3652 20.5986C82.1358 21.0523 81.8255 21.4482 81.4252 21.764C81.0204 22.0887 80.5616 22.3245 80.0668 22.4801C79.5406 22.6492 78.9918 22.7248 78.4386 22.7248C77.8809 22.7248 77.3231 22.6492 76.7924 22.4801C76.3021 22.3245 75.8478 22.0887 75.452 21.7595C75.0652 21.4393 74.7638 21.0434 74.5434 20.5941C74.305 20.1004 74.2106 19.5622 74.2106 19.0195V16.1683C74.2106 15.6212 74.3095 15.0829 74.5569 14.5892C74.7818 14.1355 75.0877 13.7441 75.4745 13.4149C75.8703 13.0813 76.3291 12.8366 76.8238 12.6765C77.3546 12.503 77.9033 12.423 78.4611 12.423C79.0368 12.423 79.6125 12.4986 80.1568 12.6765C80.6516 12.8411 81.1103 13.0813 81.5061 13.4149C81.893 13.7396 82.1898 14.1355 82.3967 14.5937C82.6216 15.0874 82.7116 15.6256 82.7116 16.1683V19.0195ZM20.5958 19.8824V18.2544H18.122C17.8971 18.2544 17.6722 18.2722 17.4518 18.3034C17.2269 18.3345 17.011 18.3923 16.8041 18.4902C16.6107 18.5792 16.4533 18.717 16.3318 18.895C16.1879 19.104 16.1474 19.3665 16.1474 19.6156C16.1474 19.9936 16.2598 20.3362 16.5792 20.5675C16.9165 20.8121 17.3303 20.8966 17.7442 20.8966C18.0005 20.8966 18.2524 20.8566 18.4953 20.7943C18.7607 20.7231 19.0215 20.6386 19.2779 20.5319C19.5298 20.4296 19.7772 20.3184 20.0156 20.1894C20.209 20.0871 20.4024 19.9848 20.5958 19.8824ZM80.719 16.4663C80.719 16.1238 80.6695 15.7635 80.5121 15.4521C80.3817 15.1941 80.2108 14.9628 79.9814 14.7805C79.7655 14.6114 79.5271 14.4869 79.2617 14.4113C79.0098 14.3401 78.7444 14.3001 78.4836 14.3001C78.2137 14.3001 77.9438 14.3401 77.6829 14.4113C77.4176 14.4869 77.1792 14.6114 76.9633 14.7805C76.7339 14.9628 76.563 15.1941 76.4325 15.4521C76.2796 15.7635 76.2256 16.1238 76.2256 16.4663V18.6815C76.2256 19.024 76.2706 19.3843 76.4055 19.7045C76.5135 19.9581 76.6664 20.1894 76.8778 20.3717C77.0802 20.5497 77.3186 20.6653 77.5795 20.7365C77.8718 20.8165 78.1777 20.8477 78.4791 20.8477C78.7444 20.8477 79.0053 20.8077 79.2572 20.7365C79.5226 20.6609 79.761 20.5363 79.9769 20.3673C80.2063 20.1849 80.3772 19.9536 80.5076 19.6956C80.6605 19.3843 80.7145 19.024 80.7145 18.6815V16.4663H80.719ZM106.694 24.9622C109.834 24.9622 112.672 23.7034 114.728 21.6706C116.59 19.8291 117.809 17.347 118.024 14.5892L114.984 14.4958L114.395 12.7432L118.011 12.7477V12.7432H120.08C120.102 13.068 120.116 13.3927 120.116 13.7263C120.116 17.3915 118.614 20.7098 116.185 23.1118C113.756 25.5137 110.401 26.9994 106.694 26.9994C102.988 26.9994 99.6326 25.5137 97.2038 23.1118C94.7749 20.7098 93.2726 17.3915 93.2726 13.7263C93.2726 10.061 94.7749 6.74274 97.2038 4.34077C99.6326 1.93879 102.988 0.453125 106.694 0.453125C109.604 0.453125 112.299 1.36943 114.498 2.92627L113.189 3.60683C112.411 4.01161 112.438 3.95378 111.669 3.60238C111.467 3.51342 111.269 3.42001 111.062 3.3355C110.365 3.03747 109.64 2.81507 108.903 2.66383C108.165 2.5126 107.409 2.43698 106.654 2.43698C103.636 2.43698 100.78 3.63797 98.6701 5.76416C98.4452 5.98657 98.2338 6.22232 98.0314 6.46251C96.3492 8.42413 95.3326 10.9595 95.3326 13.7307C95.3326 16.8355 96.6055 19.6422 98.6611 21.675C100.712 23.7034 103.555 24.9622 106.694 24.9622ZM123.768 19.8691C123.768 20.1093 123.791 20.5675 124.043 20.7009C124.321 20.8521 124.825 20.8477 125.136 20.8299L125.284 20.821L125.334 22.6403L125.203 22.6581C125.023 22.6848 124.843 22.707 124.663 22.7203C124.501 22.7337 124.344 22.7381 124.182 22.7381C123.795 22.7381 123.363 22.7025 122.999 22.5602C122.702 22.4446 122.446 22.2666 122.248 22.022C122.05 21.7729 121.929 21.4793 121.87 21.1679C121.798 20.8121 121.776 20.4429 121.776 20.0826V8.17059H123.773V19.8691H123.768ZM132.598 21.7284C132.031 22.0353 131.374 22.36 130.758 22.5113C130.308 22.6225 129.836 22.7025 129.373 22.7025C128.482 22.7025 127.636 22.4801 126.971 21.8707C126.319 21.2703 126.062 20.4785 126.062 19.6067C126.062 19.0951 126.17 18.5925 126.458 18.161C126.714 17.7785 127.034 17.4627 127.421 17.218C127.798 16.9778 128.208 16.8088 128.644 16.7021C129.022 16.6131 129.418 16.5508 129.809 16.5508H132.562V15.9459C132.562 15.4655 132.467 14.9273 132.044 14.6292C131.604 14.3223 130.992 14.2511 130.47 14.2511C130.061 14.2511 129.629 14.3179 129.229 14.3979C128.689 14.5047 128.203 14.7894 127.78 15.1319L127.654 15.2342L126.651 13.6996L126.759 13.6195C127.353 13.1658 128.023 12.8055 128.756 12.6409C129.364 12.5075 129.989 12.4185 130.61 12.4185C131.631 12.4185 132.796 12.5876 133.578 13.2993C134.338 13.9887 134.554 15.0073 134.554 15.9904V22.6269H132.787L132.598 21.7284ZM143.973 19.6734C143.973 20.1271 143.878 20.5719 143.653 20.9722C143.438 21.3548 143.145 21.675 142.794 21.9375C142.407 22.2221 141.967 22.4179 141.503 22.5469C140.977 22.6936 140.428 22.7515 139.884 22.7515C139.187 22.7515 138.494 22.6625 137.824 22.4801C137.082 22.28 136.403 21.893 135.791 21.4348L135.674 21.3459L136.794 19.8602L136.916 19.9581C137.347 20.3184 137.838 20.6119 138.382 20.7721C138.922 20.9278 139.479 20.9945 140.042 20.9945C140.275 20.9945 140.509 20.9633 140.739 20.91C140.955 20.8566 141.166 20.7765 141.355 20.6609C141.53 20.5541 141.67 20.4162 141.778 20.2427C141.895 20.0604 141.935 19.8513 141.935 19.6378C141.935 19.3086 141.836 19.0284 141.544 18.8505C141.211 18.6503 140.815 18.5391 140.437 18.4724C139.929 18.3923 139.425 18.3034 138.922 18.2055C138.44 18.1121 137.973 17.9653 137.536 17.7474C137.131 17.5472 136.781 17.2714 136.506 16.9156C136.2 16.5152 136.097 16.017 136.097 15.5233C136.097 15.074 136.187 14.6381 136.394 14.2334C136.592 13.8419 136.866 13.5172 137.217 13.2548C137.577 12.9834 137.982 12.7877 138.413 12.6498C138.886 12.4986 139.376 12.4363 139.871 12.4363C140.545 12.4363 141.238 12.4941 141.89 12.6676C142.511 12.8322 143.082 13.1213 143.599 13.4905L143.716 13.575L142.7 15.074L142.578 14.9984C142.169 14.7449 141.724 14.5269 141.256 14.4024C140.806 14.2823 140.338 14.2289 139.875 14.2289C139.407 14.2289 138.926 14.3179 138.544 14.607C138.238 14.8383 138.063 15.1274 138.063 15.51C138.063 15.7991 138.179 16.0081 138.431 16.1549C138.751 16.3418 139.129 16.4619 139.488 16.5419C139.956 16.6487 140.428 16.7376 140.901 16.8177C141.404 16.9022 141.895 17.0446 142.358 17.2536C142.808 17.4582 143.199 17.7474 143.509 18.1254C143.86 18.5525 143.973 19.1218 143.973 19.6734ZM132.566 18.2544H130.092C129.867 18.2544 129.642 18.2722 129.422 18.3034C129.197 18.3345 128.981 18.3923 128.774 18.4902C128.581 18.5792 128.424 18.717 128.302 18.895C128.158 19.104 128.118 19.3665 128.118 19.6156C128.118 19.9936 128.23 20.3362 128.549 20.5675C128.887 20.8121 129.301 20.8966 129.714 20.8966C129.966 20.8966 130.223 20.8566 130.466 20.7943C130.731 20.7231 130.992 20.6386 131.248 20.5319C131.5 20.4296 131.747 20.3184 131.986 20.1894C132.179 20.0871 132.373 19.9848 132.566 19.8869V18.2544Z" fill="#E9EAE8"/>
<path d="M102.165 17.8142L104.306 12.7701L105.017 14.0155L103.402 17.8142H102.165ZM98.832 17.8142L102.61 8.9091L102.853 8.33085H103.334L103.631 8.85128L106.694 14.2246L107.571 12.69L108.129 14.0022L107.194 15.648L106.807 16.3285H106.591L106.204 15.648L103.217 10.4081L100.073 17.8187H98.832V17.8142ZM108.552 10.9597L109.753 8.85128L110.05 8.33085H110.531L110.774 8.9091L114.552 17.8142H113.315L110.171 10.4037L109.105 12.2719L108.552 10.9597ZM105.08 10.9463L106.168 8.38423L106.46 7.69922H106.933L107.225 8.38423L108.314 10.9463L109.087 12.7701L111.228 17.8142H109.991L108.017 13.1659L107.603 12.1874L106.699 10.0567L105.795 12.1874L105.08 10.9463Z" fill="#F18500"/>
<path fill-rule="evenodd" clip-rule="evenodd" d="M115.919 9.49226C116.032 8.61598 116.747 7.71302 117.282 7.0369L120.975 2.36194L121.807 1.93048L117.125 7.85535C116.715 8.37578 116.288 8.91845 116 9.5145L115.883 9.75914L115.919 9.49226ZM112.208 5.92932C111.718 5.88929 111.291 5.66244 110.846 5.47117C107.436 4.01219 103.91 4.27018 100.919 6.51203C97.9457 8.85173 96.5019 12.8105 97.5274 16.4713L97.5364 16.5114L97.4554 16.5381L97.4419 16.498C96.0026 12.6638 97.3925 8.54036 100.581 6.04942C103.555 3.72751 107.616 3.30939 111.021 4.9374C112.186 5.46672 112.609 5.53344 113.81 4.91071L123.273 0L122.428 1.07199L114.053 5.42224C113.486 5.71137 112.861 5.9827 112.208 5.92932ZM116.297 15.3237C115.852 19.2736 112.897 22.2895 109.024 23.188C105.624 23.9797 101.967 22.9967 99.6369 20.3679L99.6099 20.3367L99.6729 20.2789L99.7044 20.3101C102.129 22.6675 105.669 23.397 108.925 22.6275C112.537 21.7735 115.469 18.9267 116.212 15.3104L116.221 15.2703L116.302 15.2837L116.297 15.3237Z" fill="#B3C8E9"/>
</svg>
