<svg width="47" height="42" viewBox="0 0 47 42" fill="none" xmlns="http://www.w3.org/2000/svg">
<path fill-rule="evenodd" clip-rule="evenodd" d="M21.0268 38.3555C25.9453 38.3555 30.3916 36.4213 33.6119 33.2979C36.5292 30.4685 38.4387 26.6548 38.777 22.4174L34.0135 22.2739L33.0904 19.5811L38.7558 19.5879V19.5811H41.9972C42.0325 20.08 42.0536 20.5789 42.0536 21.0915C42.0536 26.7231 39.7001 31.8217 35.895 35.5123C32.0898 39.203 26.8331 41.4857 21.0268 41.4857C15.2205 41.4857 9.96377 39.203 6.15865 35.5123C2.35353 31.8217 0 26.7231 0 21.0915C0 15.4598 2.35353 10.3613 6.15865 6.67064C9.96377 2.98 15.2205 0.697266 21.0268 0.697266C25.5859 0.697266 29.8068 2.10518 33.2525 4.49726L31.202 5.54294C29.9829 6.16488 30.0252 6.07604 28.8203 5.53611C28.5032 5.39942 28.1931 5.25589 27.869 5.12604C26.7768 4.66812 25.6423 4.3264 24.4866 4.09402C23.331 3.86165 22.1472 3.74546 20.9634 3.74546C16.2352 3.74546 11.7606 5.59079 8.45582 8.85769C8.10349 9.19941 7.77231 9.56164 7.45521 9.93071C4.81982 12.9447 3.2273 16.8404 3.2273 21.0983C3.2273 25.8688 5.22147 30.1814 8.44173 33.3048C11.6549 36.4213 16.1083 38.3555 21.0268 38.3555Z" fill="#E9EAE8"/>
<path d="M13.9309 27.3698L17.2851 19.6195L18.3984 21.5331L15.8687 27.3698H13.9309ZM8.70947 27.3698L14.6286 13.6871L15.0091 12.7986H15.763L16.2281 13.5983L21.0268 21.8544L22.4009 19.4965L23.2746 21.5126L21.809 24.0414L21.203 25.0871H20.8647L20.2587 24.0414L15.5798 15.9904L10.6543 27.3767H8.70947V27.3698ZM23.937 16.8378L25.8184 13.5983L26.2835 12.7986H27.0375L27.418 13.6871L33.337 27.3698H31.3993L26.4737 15.9835L24.8037 18.854L23.937 16.8378ZM18.4971 16.8173L20.2023 12.8806L20.6604 11.8281H21.4003L21.8583 12.8806L23.5635 16.8173L24.7755 19.6195L28.1297 27.3698H26.1919L23.0985 20.2278L22.4502 18.7242L21.0338 15.4504L19.6175 18.7242L18.4971 16.8173Z" fill="#F18500"/>
<path fill-rule="evenodd" clip-rule="evenodd" d="M35.4789 14.5849C35.655 13.2385 36.7754 11.8511 37.6139 10.8122L43.3991 3.62913L44.7027 2.96618L37.3673 12.0698C36.7261 12.8694 36.0567 13.7032 35.6057 14.619L35.4225 14.9949L35.4789 14.5849ZM29.6655 9.11042C28.8974 9.04891 28.228 8.70035 27.5304 8.40647C22.1891 6.16474 16.6647 6.56114 11.9787 10.0057C7.32099 13.6007 5.05907 19.6834 6.66567 25.3082L6.67977 25.3698L6.55293 25.4108L6.53179 25.3493C4.2769 19.4579 6.45427 13.1223 11.4502 9.29495C16.108 5.72733 22.471 5.08489 27.8052 7.58632C29.6303 8.39963 30.2926 8.50215 32.174 7.54532L46.9999 0L45.6752 1.64712L32.5546 8.33129C31.6667 8.77553 30.6872 9.19244 29.6655 9.11042ZM36.0708 23.5449C35.3732 29.614 30.7436 34.2478 24.6766 35.6284C19.3494 36.8449 13.6206 35.3345 9.97049 31.2953L9.92821 31.2475L10.0269 31.1586L10.0762 31.2064C13.8743 34.8287 19.4199 35.9496 24.5215 34.7672C30.1799 33.455 34.7742 29.0809 35.9369 23.5244L35.951 23.4629L36.0778 23.4834L36.0708 23.5449Z" fill="#B3C8E9"/>
</svg>
