<svg width="290" height="262" viewBox="0 0 290 262" fill="none" xmlns="http://www.w3.org/2000/svg">
<path d="M146.251 25.1203C142.457 25.1203 139.381 21.7658 139.381 17.6289C139.381 13.4906 142.457 10.1375 146.251 10.1375C150.044 10.1375 153.121 13.4906 153.121 17.6289C153.121 21.7658 150.044 25.1203 146.251 25.1203ZM146.266 0.517578C138.57 0.517578 131.789 8.28683 132.332 17.8177C132.758 25.328 141.765 44.3546 145.066 51.1055C145.33 51.6464 145.817 51.9175 146.303 51.9175C146.779 51.9175 147.254 51.6586 147.523 51.1392C150.95 44.5178 160.2 25.8972 160.2 17.8177C160.2 8.26257 153.962 0.517578 146.266 0.517578Z" fill="white"/>
<path d="M114.951 33.3691C99.6019 33.3691 61.0984 37.9255 79.2479 85.7325C80.6828 89.5146 83.5983 96.9545 86.5145 104.363H124.139V115.208H90.7958C93.0629 120.945 94.7273 125.141 94.7273 125.141L133.846 125.342V107.51V94.8865V61.5773L120.904 33.6227C120.904 33.6227 118.57 33.3691 114.951 33.3691ZM114.951 43.6891H114.963L124.383 64.0349V94.0425H124.139H92.7549C90.5024 88.303 88.9058 84.1919 87.9919 81.7845C84.729 73.1897 81.7736 61.4181 86.2305 54.1466C90.2425 47.598 100.98 43.6891 114.951 43.6891Z" fill="white"/>
<path d="M177.549 33.3691C173.93 33.3691 171.597 33.6227 171.597 33.6227L158.655 61.5773V94.8865V107.51V125.342L197.773 125.141C197.773 125.141 199.438 120.945 201.705 115.208H168.815V104.363H205.986C208.903 96.9545 211.818 89.5146 213.253 85.7325C231.401 37.9296 192.901 33.3691 177.549 33.3691ZM177.549 43.6891C191.52 43.6891 202.257 47.5993 206.271 54.1479C210.726 61.4181 207.772 73.1897 204.509 81.7845C203.599 84.1836 202.001 88.2947 199.746 94.0425H168.815H168.118V64.0349L177.539 43.6891H177.549Z" fill="white"/>
<path d="M143.628 72.2271H148.609V64.0801H143.628V72.2271Z" fill="white"/>
<path d="M143.628 102.206H148.609V87.2168H143.628V102.206Z" fill="white"/>
<path d="M143.628 125.342H148.609V117.195H143.628V125.342Z" fill="white"/>
<path d="M0.492188 194.857L3.38028 194.247V173.018L0.492188 172.408V168.834H21.0589V176.329H16.8857L16.663 173.404H8.82001V194.247L11.7254 194.857V198.412H0.492188V194.857Z" fill="white"/>
<path d="M45.0496 183.357C45.0496 180.296 44.4658 177.81 43.2982 175.902C42.1306 173.991 40.4052 173.037 38.1195 173.037C35.8337 173.037 34.1293 173.985 33.0062 175.881C31.8819 177.776 31.3192 180.269 31.3192 183.357V183.845C31.3192 186.959 31.8881 189.468 33.0248 191.371C34.1603 193.274 35.8659 194.225 38.138 194.225C40.4361 194.225 42.1615 193.274 43.3168 191.371C44.472 189.468 45.0496 186.959 45.0496 183.845V183.357ZM50.4709 183.845C50.4709 188.178 49.3341 191.759 47.0608 194.591C44.7887 197.422 41.814 198.837 38.138 198.837C34.4744 198.837 31.5158 197.422 29.261 194.591C27.0074 191.759 25.8794 188.178 25.8794 183.845V183.397C25.8794 179.09 27.0037 175.516 29.2523 172.671C31.4997 169.826 34.4559 168.404 38.1195 168.404C41.7955 168.404 44.7726 169.826 47.0521 172.671C49.3305 175.516 50.4709 179.09 50.4709 183.397V183.845Z" fill="white"/>
<path d="M78.69 178.809H74.6463L74.0885 174.867C73.5542 174.285 72.8805 173.825 72.068 173.486C71.2535 173.148 70.2939 172.978 69.1892 172.978C66.8296 172.978 65.0124 173.913 63.7398 175.782C62.4671 177.651 61.8314 180.088 61.8314 183.095V184.131C61.8314 187.138 62.4634 189.582 63.7312 191.465C64.9979 193.348 66.7865 194.289 69.0954 194.289C70.164 194.289 71.1413 194.119 72.0306 193.781C72.9173 193.442 73.6037 192.982 74.0885 192.4L74.6463 188.459H78.69V194.309C77.5966 195.69 76.2023 196.791 74.5081 197.61C72.812 198.43 70.9151 198.84 68.8172 198.84C65.1785 198.84 62.1975 197.465 59.8746 194.716C57.5518 191.966 56.3916 188.438 56.3916 184.131V183.136C56.3916 178.842 57.5456 175.314 59.856 172.552C62.1665 169.789 65.1525 168.408 68.8172 168.408C70.9151 168.408 72.8095 168.824 74.498 169.657C76.1877 170.489 77.584 171.59 78.69 172.958V178.809Z" fill="white"/>
<path d="M109.778 172.408L107.132 172.794L99.4019 192.805C98.6064 194.742 97.6754 196.231 96.6074 197.275C95.5388 198.317 94.0113 198.839 92.0237 198.839C91.7144 198.839 91.3633 198.828 90.971 198.808C90.5805 198.789 90.2858 198.764 90.0868 198.737L90.0501 194.206C90.1857 194.233 90.4221 194.254 90.7574 194.267C91.0927 194.281 91.3474 194.287 91.5217 194.287C92.5022 194.287 93.2387 194.05 93.728 193.577C94.2192 193.103 94.6325 192.386 94.9678 191.424L95.3772 190.306L87.5909 172.835L84.7026 172.408V168.834H94.6692V172.408L93.3103 172.693L97.2399 181.977L97.669 183.542H97.7799L101.526 172.754L99.9038 172.408V168.834H109.778V172.408Z" fill="white"/>
<path d="M124.584 180.939C124.472 183.932 124.146 186.474 123.605 188.566C123.065 190.66 122.361 192.424 121.491 193.859H132.091V173.402H125.03L124.584 180.939ZM140.231 205.683H135.295V198.41H118.659V205.683H113.649L113.239 193.859H115.326C116.294 192.951 117.138 191.519 117.859 189.563C118.578 187.605 119.002 184.73 119.125 180.939L119.629 172.975L116.983 172.406V168.83H140.418V172.406L137.531 173.016V193.859H140.734L140.231 205.683Z" fill="white"/>
<path d="M156.511 186.057H162.732L159.677 175.635H159.567L156.511 186.057ZM146.674 194.853L148.612 194.548L156.865 168.83H162.435L170.633 194.548L172.57 194.853V198.408H163.329V194.853L165.21 194.487L164.018 190.425H155.225L154.034 194.487L155.915 194.853V198.408H146.674V194.853Z" fill="white"/>
<path d="M186.499 183.111H191.082C192.597 183.111 193.742 182.661 194.519 181.761C195.296 180.86 195.684 179.712 195.684 178.316C195.684 176.895 195.296 175.72 194.519 174.793C193.742 173.865 192.597 173.401 191.082 173.401H186.499V183.111ZM191.082 168.83C194.187 168.83 196.636 169.7 198.431 171.44C200.226 173.181 201.124 175.459 201.124 178.277C201.124 181.107 200.226 183.382 198.431 185.102C196.636 186.822 194.187 187.683 191.082 187.683H186.499V194.245L189.406 194.854V198.408H178.172V194.854L181.059 194.245V173.015L178.172 172.406V168.83H181.059H191.082Z" fill="white"/>
<path d="M224.183 185.407H214.999V193.858H223.754L223.997 190.324H228.132V198.409H206.671V194.853L209.559 194.245V173.014L206.671 172.405V168.83H209.559H228.095V176.936H223.922L223.679 173.402H214.999V180.836H224.183V185.407Z" fill="white"/>
<path d="M243.181 185.329V193.862H248.192C249.632 193.862 250.732 193.519 251.489 192.835C252.247 192.151 252.626 191.14 252.626 189.797C252.626 188.349 252.303 187.241 251.657 186.476C251.011 185.712 249.992 185.329 248.602 185.329H243.181ZM243.181 181.225H247.093C248.547 181.225 249.663 180.901 250.446 180.25C251.228 179.6 251.62 178.652 251.62 177.406C251.62 176.038 251.226 175.029 250.437 174.379C249.648 173.729 248.471 173.404 246.906 173.404H243.181V181.225ZM246.906 168.834C250.099 168.834 252.588 169.51 254.377 170.864C256.166 172.218 257.06 174.244 257.06 176.939C257.06 178.307 256.727 179.529 256.063 180.607C255.399 181.682 254.433 182.491 253.166 183.033C254.793 183.412 256.013 184.225 256.826 185.471C257.64 186.717 258.047 188.16 258.047 189.797C258.047 192.628 257.19 194.772 255.475 196.229C253.762 197.684 251.334 198.412 248.192 198.412H234.854V194.857L237.741 194.247V173.018L234.854 172.408V168.834H237.741H246.906Z" fill="white"/>
<path d="M273.45 186.057H279.672L276.617 175.635H276.505L273.45 186.057ZM263.614 194.853L265.551 194.548L273.803 168.83H279.374L287.571 194.548L289.508 194.853V198.408H280.269V194.853L282.15 194.487L280.958 190.425H272.165L270.972 194.487L272.854 194.853V198.408H263.614V194.853Z" fill="white"/>
<path d="M70.4094 236.413C70.2985 239.406 69.9714 241.949 69.4314 244.042C68.8908 246.134 68.1866 247.899 67.317 249.334H77.9174V228.876H70.8562L70.4094 236.413ZM86.0574 261.158H81.1207V253.885H64.4852V261.158H59.4743L59.0649 249.334H61.1515C62.12 248.426 62.9635 246.995 63.6846 245.038C64.4047 243.081 64.8274 240.206 64.951 236.413L65.4549 228.45L62.8089 227.881V224.305H86.2437V227.881L83.3567 228.49V249.334H86.5606L86.0574 261.158Z" fill="white"/>
<path d="M111.409 238.83C111.409 235.769 110.825 233.284 109.657 231.374C108.49 229.466 106.764 228.51 104.478 228.51C102.193 228.51 100.489 229.459 99.3654 231.354C98.2411 233.251 97.6782 235.742 97.6782 238.83V239.317C97.6782 242.433 98.2474 244.942 99.3838 246.844C100.52 248.748 102.225 249.699 104.497 249.699C106.796 249.699 108.521 248.748 109.676 246.844C110.831 244.942 111.409 242.433 111.409 239.317V238.83ZM116.83 239.317C116.83 243.651 115.694 247.234 113.42 250.065C111.148 252.895 108.173 254.311 104.497 254.311C100.833 254.311 97.8747 252.895 95.6203 250.065C93.3665 247.234 92.2383 243.651 92.2383 239.317V238.871C92.2383 234.564 93.3627 230.988 95.6114 228.145C97.8589 225.3 100.815 223.879 104.478 223.879C108.154 223.879 111.132 225.3 113.411 228.145C115.69 230.988 116.83 234.564 116.83 238.871V239.317Z" fill="white"/>
<path d="M131.151 238.588H135.734C137.249 238.588 138.395 238.137 139.172 237.237C139.947 236.337 140.335 235.187 140.335 233.793C140.335 232.371 139.947 231.196 139.172 230.268C138.395 229.342 137.249 228.876 135.734 228.876H131.151V238.588ZM135.734 224.307C138.839 224.307 141.289 225.176 143.084 226.917C144.878 228.656 145.775 230.936 145.775 233.752C145.775 236.583 144.878 238.859 143.084 240.579C141.289 242.299 138.839 243.159 135.734 243.159H131.151V249.72L134.058 250.329V253.885H122.825V250.329L125.712 249.72V228.49L122.825 227.882V224.307H125.712H135.734Z" fill="white"/>
<path d="M170.697 238.83C170.697 235.769 170.113 233.284 168.946 231.374C167.778 229.466 166.052 228.51 163.767 228.51C161.481 228.51 159.776 229.459 158.653 231.354C157.529 233.251 156.967 235.742 156.967 238.83V239.317C156.967 242.433 157.535 244.942 158.672 246.844C159.808 248.748 161.513 249.699 163.785 249.699C166.083 249.699 167.809 248.748 168.964 246.844C170.12 244.942 170.697 242.433 170.697 239.317V238.83ZM176.119 239.317C176.119 243.651 174.981 247.234 172.708 250.065C170.436 252.895 167.461 254.311 163.785 254.311C160.122 254.311 157.163 252.895 154.908 250.065C152.655 247.234 151.527 243.651 151.527 239.317V238.871C151.527 234.564 152.651 230.988 154.9 228.145C157.147 225.3 160.104 223.879 163.767 223.879C167.443 223.879 170.42 225.3 172.7 228.145C174.978 230.988 176.119 234.564 176.119 238.871V239.317Z" fill="white"/>
<path d="M182.28 250.329L185.167 249.72V228.49L182.28 227.881V224.307H202.846V231.802H198.674L198.45 228.877H190.607V249.72L193.514 250.329V253.885H182.28V250.329Z" fill="white"/>
<path d="M214.448 241.534H220.671L217.616 231.111H217.503L214.448 241.534ZM204.613 250.329L206.55 250.026L214.802 224.307H220.373L228.569 250.026L230.506 250.329V253.885H221.267V250.329L223.148 249.964L221.956 245.901H213.163L211.971 249.964L213.852 250.329V253.885H204.613V250.329Z" fill="white"/>
</svg>
