<svg width="240" height="193" viewBox="0 0 240 193" fill="none" xmlns="http://www.w3.org/2000/svg">
<path d="M121.256 18.3721C118.12 18.3721 115.576 15.8927 115.576 12.835C115.576 9.77629 118.12 7.29785 121.256 7.29785C124.393 7.29785 126.937 9.77629 126.937 12.835C126.937 15.8927 124.393 18.3721 121.256 18.3721ZM121.269 0.1875C114.905 0.1875 109.298 5.92999 109.747 12.9745C110.099 18.5257 117.547 32.5888 120.277 37.5786C120.495 37.9784 120.897 38.1787 121.299 38.1787C121.693 38.1787 122.086 37.9874 122.309 37.6035C125.142 32.7094 132.791 18.9464 132.791 12.9745C132.791 5.91206 127.632 0.1875 121.269 0.1875Z" fill="white"/>
<path d="M95.3755 24.4688C82.6832 24.4688 50.8452 27.8365 65.8528 63.1721C67.0393 65.9676 69.4501 71.4666 71.8614 76.9421H102.973V84.9587H75.4016C77.2762 89.1984 78.6525 92.2999 78.6525 92.2999L110.999 92.4486V79.2686V69.9381V45.3182L100.297 24.6562C100.297 24.6562 98.3675 24.4688 95.3755 24.4688ZM95.3755 32.0966H95.3849L103.174 47.1347V69.3143H102.973H77.0215C75.159 65.072 73.8388 62.0334 73.0831 60.254C70.3851 53.9013 67.9413 45.2006 71.6266 39.826C74.9441 34.9857 83.8226 32.0966 95.3755 32.0966Z" fill="white"/>
<path d="M147.137 24.4688C144.144 24.4688 142.215 24.6562 142.215 24.6562L131.513 45.3182V69.9381V79.2686V92.4486L163.86 92.2999C163.86 92.2999 165.236 89.1984 167.111 84.9587H139.914V76.9421H170.651C173.063 71.4666 175.473 65.9676 176.659 63.1721C191.666 27.8395 159.831 24.4688 147.137 24.4688ZM147.137 32.0966C158.689 32.0966 167.567 34.9867 170.886 39.827C174.57 45.2006 172.128 53.9013 169.43 60.254C168.677 62.0272 167.355 65.0659 165.491 69.3143H139.914H139.338V47.1347L147.128 32.0966H147.137Z" fill="white"/>
<path d="M119.088 53.1897H123.207V47.168H119.088V53.1897Z" fill="white"/>
<path d="M119.088 75.3488H123.207V64.2695H119.088V75.3488Z" fill="white"/>
<path d="M119.088 92.4494H123.207V86.4277H119.088V92.4494Z" fill="white"/>
<path d="M0.730957 143.83L3.11908 143.379V127.688L0.730957 127.237V124.596H17.7372V130.136H14.2865L14.1024 127.974H7.61711V143.379L10.0196 143.83V146.458H0.730957V143.83Z" fill="white"/>
<path d="M37.5747 135.329C37.5747 133.067 37.092 131.229 36.1265 129.819C35.161 128.407 33.7343 127.701 31.8443 127.701C29.9542 127.701 28.5449 128.402 27.6162 129.803C26.6865 131.204 26.2212 133.047 26.2212 135.329V135.69C26.2212 137.992 26.6917 139.846 27.6316 141.253C28.5705 142.659 29.9808 143.362 31.8596 143.362C33.7599 143.362 35.1866 142.659 36.1419 141.253C37.0971 139.846 37.5747 137.992 37.5747 135.69V135.329ZM42.0575 135.69C42.0575 138.893 41.1175 141.54 39.2377 143.633C37.3589 145.725 34.8992 146.771 31.8596 146.771C28.8302 146.771 26.3838 145.725 24.5193 143.633C22.6559 141.54 21.7231 138.893 21.7231 135.69V135.359C21.7231 132.175 22.6528 129.534 24.5122 127.431C26.3705 125.328 28.8149 124.277 31.8443 124.277C34.8839 124.277 37.3456 125.328 39.2305 127.431C41.1145 129.534 42.0575 132.175 42.0575 135.359V135.69Z" fill="white"/>
<path d="M65.3913 131.969H62.0476L61.5864 129.055C61.1446 128.625 60.5875 128.285 59.9157 128.035C59.2422 127.784 58.4488 127.659 57.5353 127.659C55.5841 127.659 54.0816 128.35 53.0293 129.731C51.9768 131.113 51.4512 132.914 51.4512 135.137V135.903C51.4512 138.125 51.9738 139.931 53.0221 141.323C54.0695 142.715 55.5485 143.411 57.4577 143.411C58.3413 143.411 59.1495 143.285 59.8847 143.035C60.6179 142.784 61.1855 142.445 61.5864 142.014L62.0476 139.101H65.3913V143.426C64.4872 144.446 63.3343 145.26 61.9334 145.865C60.5309 146.471 58.9624 146.774 57.2276 146.774C54.2189 146.774 51.7539 145.758 49.8332 143.726C47.9125 141.694 46.9531 139.086 46.9531 135.903V135.167C46.9531 131.993 47.9073 129.385 49.8178 127.344C51.7283 125.302 54.1974 124.281 57.2276 124.281C58.9624 124.281 60.5288 124.588 61.925 125.204C63.3222 125.819 64.4768 126.633 65.3913 127.644V131.969Z" fill="white"/>
<path d="M91.0971 127.237L88.9096 127.522L82.5174 142.314C81.8596 143.745 81.0897 144.846 80.2067 145.618C79.3231 146.387 78.06 146.773 76.4165 146.773C76.1607 146.773 75.8704 146.765 75.546 146.75C75.2231 146.736 74.9794 146.718 74.8149 146.698L74.7845 143.349C74.8966 143.369 75.0921 143.385 75.3694 143.394C75.6466 143.404 75.8573 143.409 76.0014 143.409C76.8122 143.409 77.4212 143.234 77.8257 142.884C78.2319 142.534 78.5736 142.004 78.8509 141.292L79.1894 140.466L72.751 127.553L70.3628 127.237V124.596H78.604V127.237L77.4804 127.448L80.7297 134.31L81.0845 135.467H81.1762L84.2736 127.493L82.9324 127.237V124.596H91.0971V127.237Z" fill="white"/>
<path d="M103.341 133.542C103.248 135.754 102.978 137.633 102.531 139.179C102.084 140.727 101.503 142.031 100.784 143.091H109.548V127.971H103.709L103.341 133.542ZM116.279 151.831H112.198V146.456H98.4414V151.831H94.2985L93.96 143.091H95.6852C96.486 142.421 97.1836 141.362 97.78 139.916C98.3748 138.469 98.7249 136.344 98.8271 133.542L99.2432 127.655L97.0557 127.235V124.592H116.434V127.235L114.047 127.686V143.091H116.695L116.279 151.831Z" fill="white"/>
<path d="M129.741 137.325H134.885L132.359 129.621H132.267L129.741 137.325ZM121.607 143.826L123.21 143.601L130.033 124.592H134.639L141.418 143.601L143.019 143.826V146.454H135.378V143.826L136.934 143.556L135.948 140.553H128.677L127.693 143.556L129.248 143.826V146.454H121.607V143.826Z" fill="white"/>
<path d="M154.537 135.147H158.326C159.579 135.147 160.526 134.814 161.168 134.15C161.811 133.484 162.132 132.635 162.132 131.603C162.132 130.553 161.811 129.684 161.168 128.999C160.526 128.313 159.579 127.97 158.326 127.97H154.537V135.147ZM158.326 124.592C160.894 124.592 162.919 125.234 164.404 126.521C165.888 127.808 166.63 129.492 166.63 131.574C166.63 133.666 165.888 135.348 164.404 136.619C162.919 137.89 160.894 138.526 158.326 138.526H154.537V143.376L156.941 143.827V146.454H147.652V143.827L150.039 143.376V127.685L147.652 127.235V124.592H150.039H158.326Z" fill="white"/>
<path d="M185.697 136.845H178.103V143.09H185.343L185.544 140.478H188.963V146.455H171.217V143.826L173.605 143.377V127.685L171.217 127.234V124.592H173.605H188.932V130.583H185.481L185.281 127.971H178.103V133.466H185.697V136.845Z" fill="white"/>
<path d="M201.406 136.788V143.094H205.55C206.741 143.094 207.65 142.841 208.276 142.336C208.903 141.83 209.216 141.083 209.216 140.09C209.216 139.02 208.949 138.201 208.415 137.636C207.881 137.071 207.039 136.788 205.889 136.788H201.406ZM201.406 133.755H204.642C205.843 133.755 206.767 133.514 207.414 133.034C208.06 132.554 208.385 131.853 208.385 130.932C208.385 129.921 208.059 129.175 207.406 128.694C206.754 128.214 205.781 127.974 204.487 127.974H201.406V133.755ZM204.487 124.596C207.127 124.596 209.185 125.095 210.664 126.096C212.143 127.097 212.883 128.594 212.883 130.586C212.883 131.597 212.608 132.5 212.058 133.297C211.509 134.092 210.71 134.69 209.663 135.091C211.008 135.371 212.018 135.972 212.689 136.892C213.362 137.813 213.699 138.88 213.699 140.09C213.699 142.183 212.99 143.767 211.573 144.844C210.156 145.919 208.148 146.458 205.55 146.458H194.521V143.83L196.908 143.379V127.688L194.521 127.237V124.596H196.908H204.487Z" fill="white"/>
<path d="M226.435 137.325H231.581L229.055 129.621H228.962L226.435 137.325ZM218.303 143.826L219.904 143.601L226.728 124.592H231.335L238.113 143.601L239.714 143.826V146.454H232.074V143.826L233.63 143.556L232.644 140.553H225.373L224.387 143.556L225.943 143.826V146.454H218.303V143.826Z" fill="white"/>
<path d="M58.5446 174.546C58.4529 176.758 58.1824 178.637 57.7359 180.184C57.2889 181.731 56.7066 183.035 55.9876 184.095H64.7529V168.975H58.9141L58.5446 174.546ZM71.4837 192.835H67.4016V187.459H53.646V192.835H49.5026L49.1641 184.095H50.8894C51.6903 183.425 52.3878 182.367 52.984 180.92C53.5794 179.474 53.929 177.349 54.0312 174.546L54.4478 168.659L52.2599 168.239V165.596H71.6378V168.239L69.2506 168.69V184.095H71.8998L71.4837 192.835Z" fill="white"/>
<path d="M92.4462 176.332C92.4462 174.069 91.9635 172.233 90.9976 170.821C90.0323 169.411 88.6057 168.705 86.7154 168.705C84.8255 168.705 83.4162 169.406 82.4876 170.806C81.5578 172.208 81.0925 174.049 81.0925 176.332V176.692C81.0925 178.995 81.5631 180.85 82.5028 182.255C83.4419 183.663 84.8522 184.366 86.7311 184.366C88.6314 184.366 90.058 183.663 91.0134 182.255C91.9682 180.85 92.4462 178.995 92.4462 176.692V176.332ZM96.9287 176.692C96.9287 179.896 95.989 182.544 94.1091 184.636C92.2303 186.728 89.7708 187.774 86.7311 187.774C83.7013 187.774 81.2549 186.728 79.3908 184.636C77.5271 182.544 76.5942 179.896 76.5942 176.692V176.362C76.5942 173.179 77.524 170.536 79.3834 168.434C81.2418 166.332 83.6861 165.281 86.7154 165.281C89.755 165.281 92.2172 166.332 94.1018 168.434C95.9859 170.536 96.9287 173.179 96.9287 176.362V176.692Z" fill="white"/>
<path d="M108.771 176.153H112.56C113.813 176.153 114.76 175.82 115.403 175.155C116.044 174.489 116.365 173.64 116.365 172.609C116.365 171.558 116.044 170.69 115.403 170.004C114.76 169.319 113.813 168.975 112.56 168.975H108.771V176.153ZM112.56 165.598C115.128 165.598 117.154 166.24 118.638 167.527C120.122 168.813 120.863 170.497 120.863 172.579C120.863 174.672 120.122 176.354 118.638 177.625C117.154 178.896 115.128 179.532 112.56 179.532H108.771V184.381L111.175 184.832V187.46H101.886V184.832L104.273 184.381V168.69L101.886 168.24V165.598H104.273H112.56Z" fill="white"/>
<path d="M141.471 176.332C141.471 174.069 140.988 172.233 140.023 170.821C139.058 169.411 137.631 168.705 135.741 168.705C133.851 168.705 132.441 169.406 131.512 170.806C130.583 172.208 130.118 174.049 130.118 176.332V176.692C130.118 178.995 130.588 180.85 131.528 182.255C132.467 183.663 133.877 184.366 135.756 184.366C137.656 184.366 139.083 183.663 140.038 182.255C140.994 180.85 141.471 178.995 141.471 176.692V176.332ZM145.954 176.692C145.954 179.896 145.014 182.544 143.134 184.636C141.255 186.728 138.796 187.774 135.756 187.774C132.727 187.774 130.28 186.728 128.416 184.636C126.552 182.544 125.62 179.896 125.62 176.692V176.362C125.62 173.179 126.549 170.536 128.409 168.434C130.267 166.332 132.712 165.281 135.741 165.281C138.78 165.281 141.242 166.332 143.127 168.434C145.011 170.536 145.954 173.179 145.954 176.362V176.692Z" fill="white"/>
<path d="M151.048 184.832L153.436 184.381V168.69L151.048 168.239V165.598H168.054V171.138H164.604L164.419 168.976H157.934V184.381L160.337 184.832V187.46H151.048V184.832Z" fill="white"/>
<path d="M177.648 178.331H182.793L180.267 170.627H180.174L177.648 178.331ZM169.515 184.832L171.117 184.608L177.94 165.598H182.547L189.324 184.608L190.926 184.832V187.46H183.287V184.832L184.842 184.562L183.856 181.559H176.585L175.599 184.562L177.155 184.832V187.46H169.515V184.832Z" fill="white"/>
</svg>
