<svg width="404" height="335" viewBox="0 0 404 335" fill="none" xmlns="http://www.w3.org/2000/svg">
<path d="M203.749 31.6184C198.446 31.6184 194.146 27.3172 194.146 22.0127C194.146 16.7066 198.446 12.4071 203.749 12.4071C209.051 12.4071 213.351 16.7066 213.351 22.0127C213.351 27.3172 209.051 31.6184 203.749 31.6184ZM203.77 0.0722656C193.011 0.0722656 183.533 10.0342 184.293 22.2549C184.887 31.8848 197.478 56.2811 202.093 64.9372C202.462 65.6308 203.142 65.9784 203.821 65.9784C204.487 65.9784 205.151 65.6464 205.528 64.9805C210.317 56.4903 223.248 32.6146 223.248 22.2549C223.248 10.0031 214.527 0.0722656 203.77 0.0722656Z" fill="white"/>
<path d="M159.997 42.1953C138.54 42.1953 84.7182 48.0376 110.089 109.337C112.094 114.186 116.17 123.726 120.246 133.225H172.84V147.132H126.231C129.4 154.486 131.726 159.867 131.726 159.867L186.408 160.125V137.261V121.074V78.3644L168.317 42.5205C168.317 42.5205 165.055 42.1953 159.997 42.1953ZM159.997 55.4278H160.013L173.181 81.5156V119.992H172.84H128.969C125.821 112.633 123.589 107.361 122.311 104.275C117.75 93.2541 113.619 78.1603 119.849 68.8366C125.457 60.4399 140.467 55.4278 159.997 55.4278Z" fill="white"/>
<path d="M247.499 42.1953C242.441 42.1953 239.179 42.5205 239.179 42.5205L221.088 78.3644V121.074V137.261V160.125L275.77 159.867C275.77 159.867 278.097 154.486 281.266 147.132H235.29V133.225H287.25C291.327 123.726 295.402 114.186 297.408 109.337C322.776 48.0428 268.959 42.1953 247.499 42.1953ZM247.499 55.4278C267.028 55.4278 282.037 60.4416 287.648 68.8384C293.875 78.1603 289.747 93.2541 285.186 104.275C283.913 107.351 281.679 112.622 278.528 119.992H235.29H234.316V81.5156L247.485 55.4278H247.499Z" fill="white"/>
<path d="M200.082 92.0186H207.045V81.5723H200.082V92.0186Z" fill="white"/>
<path d="M200.082 130.458H207.045V111.238H200.082V130.458Z" fill="white"/>
<path d="M200.082 160.124H207.045V149.678H200.082V160.124Z" fill="white"/>
<path d="M0 249.258L4.03712 248.476V221.255L0 220.473V215.891H28.7491V225.501H22.9157L22.6044 221.75H11.641V248.476L15.7024 249.258V253.817H0V249.258Z" fill="white"/>
<path d="M62.2844 234.514C62.2844 230.59 61.4683 227.402 59.8362 224.955C58.2041 222.505 55.7922 221.281 52.5971 221.281C49.4019 221.281 47.0195 222.497 45.4495 224.928C43.8779 227.358 43.0913 230.555 43.0913 234.514V235.14C43.0913 239.133 43.8866 242.35 45.4755 244.79C47.0627 247.231 49.4469 248.45 52.623 248.45C55.8354 248.45 58.2473 247.231 59.8621 244.79C61.477 242.35 62.2844 239.133 62.2844 235.14V234.514ZM69.8625 235.14C69.8625 240.696 68.2735 245.288 65.0957 248.919C61.9196 252.549 57.7614 254.363 52.623 254.363C47.5018 254.363 43.3662 252.549 40.2143 248.919C37.0641 245.288 35.4873 240.696 35.4873 235.14V234.565C35.4873 229.043 37.0589 224.46 40.2021 220.813C43.3437 217.165 47.4759 215.342 52.5971 215.342C57.7356 215.342 61.8971 217.165 65.0836 220.813C68.2684 224.46 69.8625 229.043 69.8625 234.565V235.14Z" fill="white"/>
<path d="M109.308 228.68H103.656L102.876 223.626C102.129 222.879 101.188 222.289 100.052 221.855C98.9134 221.421 97.572 221.203 96.0278 221.203C92.7294 221.203 90.1893 222.402 88.4104 224.798C86.6313 227.195 85.7426 230.32 85.7426 234.176V235.504C85.7426 239.359 86.6261 242.493 88.3983 244.907C90.1689 247.322 92.6691 248.529 95.8967 248.529C97.3904 248.529 98.7566 248.311 99.9996 247.877C101.239 247.443 102.199 246.853 102.876 246.106L103.656 241.053H109.308V248.555C107.78 250.326 105.831 251.737 103.463 252.787C101.092 253.839 98.4403 254.364 95.5077 254.364C90.4214 254.364 86.2544 252.601 83.0074 249.076C79.7604 245.55 78.1387 241.026 78.1387 235.504V234.228C78.1387 228.722 79.7517 224.198 82.9814 220.657C86.2111 217.114 90.3851 215.344 95.5077 215.344C98.4403 215.344 101.088 215.876 103.449 216.945C105.811 218.012 107.762 219.423 109.308 221.177V228.68Z" fill="white"/>
<path d="M152.765 220.473L149.067 220.968L138.261 246.627C137.149 249.111 135.848 251.02 134.355 252.359C132.861 253.694 130.726 254.363 127.948 254.363C127.515 254.363 127.024 254.349 126.476 254.323C125.93 254.3 125.518 254.268 125.24 254.233L125.189 248.424C125.378 248.458 125.709 248.485 126.177 248.502C126.646 248.519 127.002 248.527 127.246 248.527C128.617 248.527 129.646 248.223 130.33 247.616C131.017 247.009 131.594 246.089 132.063 244.856L132.635 243.423L121.751 221.02L117.714 220.473V215.891H131.646V220.473L129.746 220.839L135.239 232.743L135.839 234.749H135.994L141.23 220.917L138.963 220.473V215.891H152.765V220.473Z" fill="white"/>
<path d="M173.461 231.415C173.305 235.252 172.849 238.513 172.093 241.194C171.338 243.879 170.354 246.141 169.139 247.981H183.956V221.75H174.085L173.461 231.415ZM195.334 263.142H188.434V253.817H165.179V263.142H158.176L157.604 247.981H160.52C161.874 246.818 163.053 244.981 164.061 242.473C165.067 239.962 165.659 236.276 165.831 231.415L166.535 221.203L162.837 220.474V215.889H195.595V220.474L191.56 221.256V247.981H196.038L195.334 263.142Z" fill="white"/>
<path d="M218.091 237.977H226.788L222.517 224.614H222.362L218.091 237.977ZM204.341 249.256L207.05 248.865L218.585 215.889H226.371L237.831 248.865L240.539 249.256V253.815H227.621V249.256L230.251 248.787L228.584 243.578H216.293L214.629 248.787L217.258 249.256V253.815H204.341V249.256Z" fill="white"/>
<path d="M260.01 234.2H266.415C268.534 234.2 270.135 233.622 271.22 232.469C272.306 231.314 272.849 229.842 272.849 228.052C272.849 226.229 272.306 224.723 271.22 223.534C270.135 222.345 268.534 221.749 266.415 221.749H260.01V234.2ZM266.415 215.889C270.757 215.889 274.18 217.004 276.689 219.235C279.198 221.468 280.453 224.389 280.453 228.002C280.453 231.63 279.198 234.548 276.689 236.753C274.18 238.958 270.757 240.062 266.415 240.062H260.01V248.476L264.073 249.258V253.815H248.37V249.258L252.406 248.476V221.255L248.37 220.473V215.889H252.406H266.415Z" fill="white"/>
<path d="M312.686 237.144H299.849V247.98H312.087L312.427 243.448H318.207V253.815H288.207V249.256L292.244 248.476V221.254L288.207 220.472V215.889H292.244H318.154V226.282H312.321L311.982 221.75H299.849V231.283H312.686V237.144Z" fill="white"/>
<path d="M339.242 237.041V247.982H346.247C348.261 247.982 349.798 247.542 350.856 246.665C351.915 245.788 352.445 244.491 352.445 242.77C352.445 240.913 351.993 239.493 351.091 238.512C350.189 237.532 348.764 237.041 346.82 237.041H339.242ZM339.242 231.779H344.712C346.743 231.779 348.304 231.363 349.398 230.529C350.491 229.696 351.039 228.48 351.039 226.882C351.039 225.128 350.488 223.834 349.385 223C348.283 222.167 346.638 221.75 344.45 221.75H339.242V231.779ZM344.45 215.891C348.913 215.891 352.393 216.757 354.893 218.494C357.393 220.23 358.643 222.827 358.643 226.283C358.643 228.037 358.178 229.603 357.25 230.986C356.321 232.364 354.971 233.402 353.2 234.097C355.474 234.583 357.181 235.626 358.316 237.223C359.454 238.82 360.023 240.671 360.023 242.77C360.023 246.4 358.825 249.149 356.428 251.017C354.034 252.882 350.639 253.817 346.247 253.817H327.604V249.258L331.638 248.476V221.255L327.604 220.473V215.891H331.638H344.45Z" fill="white"/>
<path d="M381.553 237.977H390.251L385.981 224.614H385.824L381.553 237.977ZM367.805 249.256L370.512 248.865L382.047 215.889H389.835L401.293 248.865L404.001 249.256V253.815H391.085V249.256L393.715 248.787L392.048 243.578H379.757L378.09 248.787L380.72 249.256V253.815H367.805V249.256Z" fill="white"/>
<path d="M97.7338 302.544C97.5787 306.381 97.1216 309.642 96.3667 312.325C95.611 315.008 94.6267 317.27 93.4111 319.11H108.229V292.879H98.3584L97.7338 302.544ZM119.607 334.271H112.707V324.946H89.4527V334.271H82.4482L81.876 319.11H84.7927C86.1465 317.947 87.3256 316.111 88.3336 313.602C89.3401 311.092 89.9311 307.406 90.1038 302.544L90.8082 292.332L87.1095 291.603V287.018H119.868V291.603L115.832 292.385V319.11H120.311L119.607 334.271Z" fill="white"/>
<path d="M155.045 305.644C155.045 301.718 154.229 298.532 152.596 296.083C150.964 293.636 148.552 292.411 145.357 292.411C142.162 292.411 139.78 293.627 138.21 296.057C136.638 298.489 135.851 301.683 135.851 305.644V306.268C135.851 310.263 136.647 313.48 138.235 315.919C139.823 318.361 142.207 319.58 145.383 319.58C148.596 319.58 151.008 318.361 152.623 315.919C154.237 313.48 155.045 310.263 155.045 306.268V305.644ZM162.623 306.268C162.623 311.825 161.034 316.419 157.856 320.049C154.68 323.677 150.522 325.493 145.383 325.493C140.262 325.493 136.126 323.677 132.975 320.049C129.824 316.419 128.247 311.825 128.247 306.268V305.695C128.247 300.173 129.819 295.589 132.962 291.943C136.104 288.295 140.236 286.473 145.357 286.473C150.495 286.473 154.658 288.295 157.844 291.943C161.029 295.589 162.623 300.173 162.623 305.695V306.268Z" fill="white"/>
<path d="M182.642 305.331H189.047C191.166 305.331 192.767 304.753 193.853 303.598C194.936 302.445 195.479 300.971 195.479 299.183C195.479 297.36 194.936 295.854 193.853 294.663C192.767 293.476 191.166 292.878 189.047 292.878H182.642V305.331ZM189.047 287.02C193.388 287.02 196.813 288.134 199.321 290.366C201.83 292.597 203.084 295.519 203.084 299.131C203.084 302.761 201.83 305.679 199.321 307.884C196.813 310.089 193.388 311.193 189.047 311.193H182.642V319.605L186.705 320.387V324.945H171.003V320.387L175.038 319.605V292.384L171.003 291.604V287.02H175.038H189.047Z" fill="white"/>
<path d="M237.921 305.644C237.921 301.718 237.105 298.532 235.473 296.083C233.841 293.636 231.429 292.411 228.234 292.411C225.039 292.411 222.656 293.627 221.086 296.057C219.514 298.489 218.728 301.683 218.728 305.644V306.268C218.728 310.263 219.523 313.48 221.112 315.919C222.699 318.361 225.083 319.58 228.259 319.58C231.472 319.58 233.884 318.361 235.499 315.919C237.114 313.48 237.921 310.263 237.921 306.268V305.644ZM245.499 306.268C245.499 311.825 243.91 316.419 240.732 320.049C237.556 323.677 233.398 325.493 228.259 325.493C223.139 325.493 219.003 323.677 215.851 320.049C212.701 316.419 211.124 311.825 211.124 306.268V305.695C211.124 300.173 212.696 295.589 215.839 291.943C218.98 288.295 223.113 286.473 228.234 286.473C233.372 286.473 237.534 288.295 240.721 291.943C243.905 295.589 245.499 300.173 245.499 305.695V306.268Z" fill="white"/>
<path d="M254.112 320.387L258.148 319.605V292.384L254.112 291.602V287.02H282.86V296.63H277.028L276.715 292.879H265.752V319.605L269.815 320.387V324.945H254.112V320.387Z" fill="white"/>
<path d="M299.078 309.108H307.777L303.507 295.745H303.349L299.078 309.108ZM285.33 320.387L288.038 319.998L299.573 287.02H307.36L318.818 319.998L321.525 320.387V324.945H308.611V320.387L311.24 319.918L309.574 314.708H297.282L295.615 319.918L298.245 320.387V324.945H285.33V320.387Z" fill="white"/>
</svg>
